/* XPM */
static char *_634b3c642574c7bbc2ed67695a15bff2q38obdaxxybkN0t[] = {
/* columns rows colors chars-per-pixel */
"64 64 183 2 ",
"   c None",
".  c gray18",
"X  c #2F2F2F",
"o  c #323232",
"O  c #343434",
"+  c gray21",
"@  c #393939",
"#  c gray23",
"$  c #3C3C3C",
"%  c gray24",
"&  c #3E3E3E",
"*  c #3F3F3F",
"=  c gray25",
"-  c gray26",
";  c #444444",
":  c gray27",
">  c gray28",
",  c #494949",
"<  c #4B4B4B",
"1  c #4C4C4C",
"2  c gray30",
"3  c #4E4E4E",
"4  c gray31",
"5  c #505050",
"6  c #515151",
"7  c gray32",
"8  c #535353",
"9  c gray33",
"0  c #555555",
"q  c #565656",
"w  c gray34",
"e  c #585858",
"r  c gray35",
"t  c #5A5A5A",
"y  c #5B5B5B",
"u  c gray36",
"i  c #5D5D5D",
"p  c gray37",
"a  c #5F5F5F",
"s  c #606060",
"d  c gray38",
"f  c #626262",
"g  c gray39",
"h  c #646464",
"j  c #656565",
"k  c gray40",
"l  c #676767",
"z  c #686868",
"x  c DimGray",
"c  c #6A6A6A",
"v  c gray42",
"b  c #6C6C6C",
"n  c #6D6D6D",
"m  c gray43",
"M  c #6F6F6F",
"N  c gray44",
"B  c #717171",
"V  c #727272",
"C  c gray45",
"Z  c #747474",
"A  c gray46",
"S  c #767676",
"D  c #777777",
"F  c gray47",
"G  c #797979",
"H  c gray48",
"J  c #7B7B7B",
"K  c #7C7C7C",
"L  c gray49",
"P  c #7E7E7E",
"I  c gray50",
"U  c #808080",
"Y  c #818181",
"T  c #838383",
"R  c gray52",
"E  c #868686",
"W  c gray53",
"Q  c #888888",
"!  c #898989",
"~  c gray55",
"^  c #8D8D8D",
"/  c #8E8E8E",
"(  c gray56",
")  c #929292",
"_  c #939393",
"`  c gray58",
"'  c #959595",
"]  c #979797",
"[  c #989898",
"{  c gray60",
"}  c #9A9A9A",
"|  c #9B9B9B",
" . c gray61",
".. c #9D9D9D",
"X. c gray62",
"o. c #9F9F9F",
"O. c #A0A0A0",
"+. c gray63",
"@. c #A2A2A2",
"#. c gray64",
"$. c #A4A4A4",
"%. c #A5A5A5",
"&. c #A7A7A7",
"*. c gray66",
"=. c gray67",
"-. c #ACACAC",
";. c gray68",
":. c #AEAEAE",
">. c #AFAFAF",
",. c gray69",
"<. c #B1B1B1",
"1. c #B2B2B2",
"2. c gray70",
"3. c #B4B4B4",
"4. c gray71",
"5. c #B6B6B6",
"6. c #B7B7B7",
"7. c gray72",
"8. c #B9B9B9",
"9. c gray73",
"0. c #BBBBBB",
"q. c #BCBCBC",
"w. c gray74",
"e. c gray",
"r. c gray75",
"t. c #C0C0C0",
"y. c #C1C1C1",
"u. c gray77",
"i. c #C5C5C5",
"p. c #C6C6C6",
"a. c gray78",
"s. c #CACACA",
"d. c #CBCBCB",
"f. c gray80",
"g. c #CDCDCD",
"h. c #CECECE",
"j. c gray81",
"k. c #D0D0D0",
"l. c gray82",
"z. c #D2D2D2",
"x. c LightGray",
"c. c gray83",
"v. c #D5D5D5",
"b. c gray84",
"n. c #D7D7D7",
"m. c #DADADA",
"M. c gray86",
"N. c gainsboro",
"B. c #DDDDDD",
"V. c gray87",
"C. c #DFDFDF",
"Z. c gray88",
"A. c #E1E1E1",
"S. c #E2E2E2",
"D. c gray89",
"F. c #E4E4E4",
"G. c gray90",
"H. c #E6E6E6",
"J. c #E7E7E7",
"K. c gray91",
"L. c #E9E9E9",
"P. c #EAEAEA",
"I. c gray92",
"U. c #ECECEC",
"Y. c gray93",
"T. c #EEEEEE",
"R. c #EFEFEF",
"E. c gray94",
"W. c #F1F1F1",
"Q. c gray95",
"!. c #F3F3F3",
"~. c #F4F4F4",
"^. c gray96",
"/. c #F6F6F6",
"(. c gray97",
"). c #F8F8F8",
"_. c #F9F9F9",
"`. c gray98",
"'. c #FBFBFB",
"]. c gray99",
"[. c #FDFDFD",
"{. c #FEFEFE",
"}. c white",
/* pixels */
"                                                                                                                                ",
"                                                      > f n S J K S z y *                                                       ",
"                                                O u ` g.Y.^.'.'.'.'.^.Y.g.} u @                                                 ",
"                                            * n w.W.}.}.}.}.}.}.}.}.}.}.}.}.Y.8.S z                                             ",
"                                          y 4.^.}.}.}.}.}.}.}.}.}.}.}.}.}.}.}.}.^.;.l                                           ",
"                                      . C S.}.}.}.}.}.}.}.}.}.}.}.}.}.}.}.}.}.}.}.}.V.S                                         ",
"                                    o U W.}.}.}.}.}.}.}.}.}.}.}.}.}.}.}.}.}.}.}.}.}.}.W.W =                                     ",
"                                    K ^.}.}.}.}.}.}.}.}.}.}.}.}.}.}.}.}.}.}.}.}.}.}.}.}.^.U                                     ",
"                                  l Y.}.}.}.}.}.}.}.}.}.}.}.}.}.}.}.}.}.}.}.}.}.}.}.}.}.}.G.l                                   ",
"                                2 l.}.}.}.}.}.}.}.}.}.}.}.}.}.}.}.}.}.}.}.}.}.}.}.}.}.}.}.}.a.<                                 ",
"                                ` }.}.}.}.}.}.}.}.}.}.}.}.}.}.}.}.}.}.}.}.}.}.}.}.}.}.}.}.}.}.W                                 ",
"                              5 V.}.}.}.}.}.}.}.}.}.}.}.}.}.}.}.}.}.}.}.}.}.}.}.}.}.}.}.}.}.}.l.2                               ",
"                              J '.}.}.}.}.}.}.}.}.}.}.}.}.}.}.}.}.}.}.}.}.}.}.}.}.}.}.}.}.}.}.'.S                               ",
"                              *.}.}.}.}.}.}.}.}.}.}.}.}.}.}.}.}.}.}.}.}.}.}.}.}.}.}.}.}.}.}.}.}.&.                              ",
"                            < d.}.}.}.}.}.}.}.}.}.}.}.}.}.}.}.}.}.}.}.}.}.}.}.}.}.}.}.}.}.}.}.}.d.>                             ",
"                            5 S.}.}.}.}.}.}.}.}.}.}.}.}.}.}.}.}.}.}.}.}.}.}.}.}.}.}.}.}.}.}.}.}.V.5                             ",
"                            0 Y.}.}.}.}.}.}.}.}.}.}.}.}.}.}.}.}.}.}.}.}.}.}.}.}.}.}.}.}.}.}.}.}.G.y                             ",
"                            y W.}.}.}.}.}.}.}.}.}.}.}.}.}.}.}.}.}.}.}.}.}.}.}.}.}.}.}.}.}.}.}.}.I.u                             ",
"                            0 I.}.}.}.}.}.}.}.}.}.}.}.}.}.}.}.}.}.}.}.}.}.}.}.}.}.}.}.}.}.}.}.}.I.5                             ",
"                            2 S.}.}.}.}.}.}.}.}.}.}.}.}.}.}.}.}.}.}.}.}.}.}.}.}.}.}.}.}.}.}.}.}.M.@                             ",
"                            = d.}.}.}.}.}.}.}.}.}.}.}.}.}.}.}.}.}.}.}.}.}.}.}.}.}.}.}.}.}.}.}.}.a.                              ",
"                               .}.}.}.}.}.}.}.}.}.}.}.}.}.}.}.}.}.}.}.}.}.}.}.}.}.}.}.}.}.}.}.}.}                               ",
"                              u W.}.}.}.}.}.}.}.}.}.}.}.}.}.}.}.}.}.}.}.}.}.}.}.}.}.}.}.}.}.}.W.u                               ",
"                                4.}.}.}.}.}.}.}.}.}.}.}.}.}.}.}.}.}.}.}.}.}.}.}.}.}.}.}.}.}.}.8.                                ",
"                                u Y.}.}.}.}.}.}.}.}.}.^.S.g.w.4.2.w.d.V.^.}.}.}.}.}.}.}.}.}.W.f                                 ",
"                                  @.}.}.}.}.}.}.'.g._ S J U _  . .` W S C ~ g.'.}.}.}.}.}.}. .                                  ",
"                                  * a.}.}.}.}.M.U K 8.G.'.}.}.}.}.}.}.'.S.;.S K M.}.}.}.}.w.O                                   ",
"                                    < l.}.}.w.l 4.'.}.}.}.}.}.}.}.}.}.}.}.}.'.4.l w.}.}.d.>                                     ",
"                                      u d.w.n n.}.}.}.}.}.}.}.}.}.}.}.}.}.}.}.}.n.n w.a.y                                       ",
"                                        S u S.}.}.}.}.}.}.}.}.}.}.}.}.}.}.}.}.}.}.V.y J                                         ",
"                                        n l.}.}.}.}.}.}.}.}.}.}.}.}.}.}.}.}.}.}.}.}.a.n                                         ",
"                                        4.}.}.}.}.}.}.}.}.}.}.}.}.}.}.}.}.}.}.}.}.}.}.&.                                        ",
"                                      ~ '.}.}.}.}.}.}.}.}.}.}.}.}.}.}.}.}.}.}.}.}.}.}.'.W                                       ",
"                                    J W.}.}.}.}.}.}.}.}.}.}.}.}.}.}.}.}.}.}.}.}.}.}.}.}.Y.C                                     ",
"                                ~ n I.}.}.}.}.}.}.}.}.}.}.}.}.}.}.}.}.}.}.}.}.}.}.}.}.}.}.S.n ~                                 ",
"                            5 ~ C G.}.}.}.}.}.}.}.}.}.}.}.}.}.}.}.}.}.}.}.}.}.}.}.}.}.}.}.}.S.C ;.&.                            ",
"                        * U C C G.}.}.}.}.}.}.}.}.}.}.}.}.}.}.}.}.}.}.}.}.}.}.}.}.}.}.}.}.}.}.S.n f S =                         ",
"                    O U g.} W Y.}.}.}.}.}.}.}.}.}.}.}.}.}.}.}.}.}.}.}.}.}.}.}.}.}.}.}.}.}.}.}.}.S.n ` g.U .                     ",
"                  < 8.^.&. .^.}.}.}.}.}.}.}.}.}.}.}.}.}.}.}.}.}.}.}.}.}.}.}.}.}.}.}.}.}.}.}.}.}.}.Y.W &.^.8.<                   ",
"              O 2 n.}.^.S.}.}.}.}.}.}.}.}.}.}.}.}.}.}.}.}.}.}.}.}.}.}.}.}.}.}.}.}.}.}.}.}.}.}.}.}.}.'.g.Y.}.l.y K               ",
"          y } f l.}.}.}.}.}.}.}.}.}.}.}.}.}.}.}.}.}.}.}.}.}.}.}.}.}.}.}.}.}.}.}.}.}.}.}.}.}.}.}.}.}.}.}.}.}.}.d.y ~ u           ",
"        u I.~ &.}.}.}.}.}.}.}.}.}.}.}.}.}.}.}.}.}.}.}.}.}.}.}.}.}.}.}.}.}.}.}.}.}.}.}.}.}.}.}.}.}.}.}.}.}.}.}.}.@.} S.C         ",
"      * n.l.l W.}.}.}.}.}.}.}.}.}.}.}.}.}.}.}.}.}.}.}.}.}.}.}.}.}.}.}.}.}.}.}.}.}.}.}.}.}.}.}.}.}.}.}.}.}.}.}.}.Y.n V.M.u       ",
"    . } }.~ *.}.}.}.}.}.}.}.}.}.}.}.}.}.}.}.}.}.}.}.}.}.}.}.}.}.}.}.}.}.}.}.}.}.}.}.}.}.}.}.}.}.}.}.}.}.}.}.}.}.}.@.` }.&.n     ",
"    0 Y.Y.f S.}.}.}.}.}.}.}.}.}.}.}.}.}.}.}.}.}.}.}.}.}.}.}.}.}.}.}.}.}.}.}.}.}.}.}.}.}.}.}.}.}.}.}.}.}.}.}.}.}.}.M.C '.I.l     ",
"    W }.l.n '.}.}.}.}.}.}.}.}.}.}.}.}.}.}.}.}.}.}.}.}.}.}.}.}.}.}.}.}.}.}.}.}.}.}.}.}.}.}.}.}.}.}.}.}.}.}.}.}.}.}.^.C V.}.W     ",
"  f  .}.8.~ }.}.}.}.}.}.}.}.}.}.}.}.}.}.}.}.}.}.}.}.}.}.}.}.}.}.}.}.}.}.}.}.}.}.}.}.}.}.}.}.}.}.}.}.}.}.}.}.}.}.}.}.K a.}. .    ",
"  l  .}.;. .}.}.}.}.}.}.}.}.}.}.}.}.}.}.}.}.}.}.}.}.}.}.}.}.}.}.}.}.}.}.}.}.}.}.}.}.}.}.}.}.}.}.}.}.}.}.}.}.}.}.}.}.~ *.}.&.    ",
"  z  .}.;.&.}.}.}.}.}.}.}.}.}.}.}.}.}.}.}.}.}.}.}.}.}.}.}.}.}.}.}.}.}.}.}.}.}.}.}.}.}.}.}.}.}.}.}.}.}.}.}.}.}.}.}.}.~  .}.@.    ",
"  z ` }.2.@.}.}.}.}.}.}.}.}.}.}.}.}.}.}.}.}.}.}.}.}.}.}.}.}.}.}.}.}.}.}.}.}.}.}.}.}.}.}.}.}.}.}.}.}.}.}.}.}.}.}.}.}.W &.}.`     ",
"    U }.8.~ }.}.}.}.}.}.}.}.}.}.}.}.}.}.}.}.}.}.}.}.}.}.}.}.}.}.}.}.}.}.}.}.}.}.}.}.}.}.}.}.}.}.}.}.}.}.}.}.}.}.}.}.U 8.}.J     ",
"    2 Y.l.S '.}.}.}.}.}.}.}.}.}.}.}.}.}.}.}.}.}.}.}.}.}.}.}.}.}.}.}.}.}.}.}.}.}.}.}.}.}.}.}.}.}.}.}.}.}.}.}.}.}.}.^.C M.G.2     ",
"    o @.W.z I.}.}.}.}.}.}.}.}.}.}.}.}.}.}.}.}.}.}.}.}.}.}.}.}.}.}.}.}.}.}.}.}.}.}.}.}.}.}.}.}.}.}.}.}.}.}.}.}.}.}.S.C ^.}       ",
"      2 G.` 8.}.}.}.}.}.}.}.}.}.}.}.}.}.}.}.}.}.}.}.}.}.}.}.}.}.}.}.}.}.}.}.}.}.}.}.}.}.}.}.}.}.}.}.}.}.}.}.}.}.}.;.` V.>       ",
"        J d.S ^.}.}.}.}.}.}.}.}.}.}.}.}.}.}.}.}.}.}.}.}.}.}.}.}.}.}.}.}.}.}.}.}.}.}.}.}.}.}.}.}.}.}.}.}.}.}.}.}.^.J g.J         ",
"        * J f 8.}.}.}.}.}.}.}.}.}.}.}.}.}.}.}.}.}.}.}.}.}.}.}.}.}.}.}.}.}.}.}.}.}.}.}.}.}.}.}.}.}.}.}.}.}.}.}.}.*.5 z           ",
"            5 f W.}.}.}.}.}.}.}.}.}.}.}.}.}.}.}.}.}.}.}.}.}.}.}.}.}.}.}.}.}.}.}.}.}.}.}.}.}.}.}.}.}.}.}.}.}.}.V.2 2             ",
"                 .'.}.}.}.}.}.}.}.}.}.}.}.}.}.}.}.}.}.}.}.}.}.}.}.}.}.}.}.}.}.}.}.}.}.}.}.}.}.}.}.}.}.}.}.}.S.n                 ",
"                  } G.}.}.}.}.}.}.}.}.}.}.}.}.}.}.}.}.}.}.}.}.}.}.}.}.}.}.}.}.}.}.}.}.}.}.}.}.}.}.}.}.}.}.l.z                   ",
"                    u 2.^.}.}.}.}.}.}.}.}.}.}.}.}.}.}.}.}.}.}.}.}.}.}.}.}.}.}.}.}.}.}.}.}.}.}.}.}.}.}.Y. .0                     ",
"                        S a.^.}.}.}.}.}.}.}.}.}.}.}.}.}.}.}.}.}.}.}.}.}.}.}.}.}.}.}.}.}.}.}.}.}.}.V.@.l 5                       ",
"                            ~ d.Y.W.I.V.n.M.M.M.n.M.M.M.M.M.M.M.M.M.M.M.M.M.n.M.n.n.l.n.M.V.n.4.W u u                           ",
"                                    w.2.*.;.;.2.2.2.;.2.2.2.2.2.2.2.4.2.2.4.2.2.2.;.;.*.2.8.;.                                  ",
"                                                                                                                                "
};
