/* XPM */
static char *_b5acfeacdfb4fc7dccb7fe0d845c3e4mTpYjDXR0ewngxGA[] = {
/* columns rows colors chars-per-pixel */
"64 64 225 2 ",
"   c None",
".  c #32142E",
"X  c #3A283A",
"o  c #3A2947",
"O  c #463749",
"+  c #422E47",
"@  c #504754",
"#  c #746A6D",
"$  c #B91C3A",
"%  c #BC273B",
"&  c #E11F3A",
"*  c #C12138",
"=  c #DB233B",
"-  c #E4243A",
";  c #BD6A34",
":  c #C75C23",
">  c #C75E34",
",  c #CC632A",
"<  c #C66636",
"1  c #CE6B34",
"2  c #EC792E",
"3  c #E8762B",
"4  c #ED7B34",
"5  c #E97837",
"6  c #F47838",
"7  c #F9742D",
"8  c #C91F42",
"9  c #E31E44",
"0  c #DB2545",
"q  c #DD334C",
"w  c #DA3747",
"e  c #DD3655",
"r  c #CE3240",
"t  c #E1334B",
"y  c #E33A54",
"u  c #E52647",
"i  c #86777B",
"p  c #92737B",
"a  c #B8656B",
"s  c #C97F4A",
"d  c #EF7F45",
"f  c #F37A4B",
"g  c #E84165",
"h  c #D06B76",
"j  c #E8777C",
"k  c #E46E7E",
"l  c #589D73",
"z  c #589D6E",
"x  c #7B8270",
"c  c #5CA275",
"v  c #52A06E",
"b  c #60A175",
"n  c #F4843E",
"m  c #EC8438",
"M  c #BF955B",
"N  c #8D8173",
"B  c #A18F7B",
"V  c #DF975D",
"C  c #EB8A4D",
"Z  c #EA8644",
"A  c #F68548",
"S  c #EA914B",
"D  c #E98958",
"F  c #F68A54",
"G  c #EC9656",
"H  c #F59758",
"J  c #CA9E77",
"K  c #CC9073",
"L  c #EA9C66",
"P  c #F69C68",
"I  c #E99377",
"U  c #CBA37B",
"Y  c #D5A57C",
"T  c #EBA465",
"R  c #EAA56E",
"E  c #F5A668",
"W  c #F3A878",
"Q  c #ECB378",
"!  c #F8B67F",
"~  c #857A81",
"^  c #EB7C84",
"/  c #E97886",
"(  c #F2798A",
")  c #59BC83",
"_  c #77A584",
"`  c #72BB89",
"'  c #76B998",
"]  c #6BBA8C",
"[  c #5FC089",
"{  c #67C288",
"}  c #6EC392",
"|  c #79C996",
" . c #7DD49D",
".. c #9A8C88",
"X. c #A28D88",
"o. c #AB9E95",
"O. c #A89E96",
"+. c #A59586",
"@. c #87B48D",
"#. c #88BF99",
"$. c #80AE87",
"%. c #A7A397",
"&. c #B6A99E",
"*. c #AEB79C",
"=. c #A1B18C",
"-. c #97BCA6",
";. c #B7B9A4",
":. c #AFB0A8",
">. c #C68383",
",. c #C79A87",
"<. c #F2868D",
"1. c #EC9A99",
"2. c #F79C9D",
"3. c #F38F8D",
"4. c #CDAB85",
"5. c #C8AB9B",
"6. c #C8B798",
"7. c #D0B091",
"8. c #E9BD89",
"9. c #F8BA8A",
"0. c #EBAA9E",
"q. c #EBA49A",
"w. c #F8B794",
"e. c #F3AE94",
"r. c #F29EA3",
"t. c #C8BAAC",
"y. c #D1BBA7",
"u. c #E9A6A6",
"i. c #F2A4A7",
"p. c #EFBCAF",
"a. c #89C99A",
"s. c #8CC991",
"d. c #B2C99C",
"f. c #95C8A4",
"g. c #98D5A8",
"h. c #8AD2A0",
"j. c #B8C4A9",
"k. c #B9CDBA",
"l. c #ACDBBA",
"z. c #B6D8BA",
"x. c #B7D2AF",
"c. c #ACE1BA",
"v. c #C3C095",
"b. c #EDC497",
"n. c #F7C99A",
"m. c #F4D19D",
"M. c #F5C48C",
"N. c #CCCCAC",
"B. c #C9C9A7",
"V. c #D3CBAD",
"C. c #D3C4A7",
"Z. c #CBD1AD",
"A. c #C8CAB6",
"S. c #D4CAB5",
"D. c #C9D6B8",
"F. c #D2D4B9",
"G. c #D9D7B9",
"H. c #F5CCA3",
"J. c #FCCCA3",
"K. c #FBC9A6",
"L. c #ECD4A6",
"P. c #F9D5A8",
"I. c #E7C9B5",
"U. c #EAD9BA",
"Y. c #F4DDB4",
"T. c #FCDCB5",
"R. c #F6DCBC",
"E. c #FDDCBC",
"W. c #F9D4B9",
"Q. c #FCCFB0",
"!. c #C8E3BB",
"~. c #D3EBBB",
"^. c #F5E3AC",
"/. c #EAE5B7",
"(. c #FCE4BB",
"). c #F6E7B8",
"_. c #D2BFC1",
"`. c #B8D8C5",
"'. c #BDE5D4",
"]. c #D9D9C8",
"[. c #CBD3C3",
"{. c #E5DAC6",
"}. c #F3D4C3",
"|. c #F8D7C7",
" X c #E8DDD7",
".X c #F6D9D6",
"XX c #CAE5C5",
"oX c #D5E8C8",
"OX c #D5E8D7",
"+X c #D9F3D5",
"@X c #C8EDD6",
"#X c #E9E5C7",
"$X c #FDEAC2",
"%X c #F8E8C7",
"&X c #F8F6CC",
"*X c #E7EBD5",
"=X c #FBECD4",
"-X c #F9EEDA",
";X c #EAF7D7",
":X c #F3F3D5",
">X c #FCF4D4",
",X c #F4FCD5",
"<X c #FDFDD5",
"1X c #F3F5DC",
"2X c #FCF4DB",
"3X c #F4FCDB",
"4X c #FCFDDC",
"5X c #EEF6CD",
"6X c #DAF3EA",
"7X c #E8EAE5",
"8X c #F6E8E9",
"9X c #ECF6E9",
"0X c #FBF5E2",
"qX c #F4FDE3",
"wX c #FDFDE3",
"eX c #F4FEEB",
"rX c #FDFEEB",
"tX c #F5F5E7",
"yX c #EEF8FB",
"uX c #FBF4F4",
"iX c #F3FCF3",
"pX c #FDFEF3",
"aX c #FDFDFC",
"sX c #F3F7F6",
"dX c #F0EAF2",
/* pixels */
"                                                                                                                                ",
"                                                                                                                                ",
"                                                                                                                                ",
"                                                                                                                                ",
"                                                                                                                                ",
"                                                                                                                                ",
"                                                                                                                                ",
"                                                                                                                                ",
"                                                                                                                                ",
"                                                                3XwX4X                                                          ",
"                                                      w.F A P T S C F Z S H e.                                                  ",
"                                                    W.P L b.K.E P R W W W H W U.                                                ",
"                                                  ,X5X3XpXeX+XwX<XqXrX+X,X3XwX<XpX                                              ",
"                                                '.XXrXqXpXXXa.4X,X,X>Xa.D.wX;XwXz.@X                                            ",
"                                              6X[ ' eXuX3Xa.} z.rX0X!.) h.<X&X5X#.' OX                                          ",
"                                              f.d.z.@XpXc.a.x.} &XqX} l.| `.rXg. .g.f.                                          ",
"                                            '.] tXeX[.+X} l.rX| l.l.| wXx.| oX} ~.3X' `.                                        ",
"                                          6X' `.rXtXz.` g.3X4XoX{ ` oXwX,Xf.{ h.4XrXz.` OX                                      ",
"                                          z.s.,XpXwX+X{ !.wX4X2Xa.s.wX,X4X~.{ +XwX:X,Xa.`.                                      ",
"                                        uX1X+XrXpXrXrX+X3X0XwXeX;X;XeXqX0XrXoXrXqXwX3X+XtXiX                                    ",
"                                        Y.m.#X-X).Q.H.n.P.P.b.L.P.H.L.H.K.H.K.L.n.H.P.P.P.W.rX                                  ",
"                                        C Z w.w.H 6 5 6 3 4 6 4 5 2 m 4 2 4 6 4 4 4 6 3 3 D #X                                  ",
"                                      0XT.).wX=XU.(.Y.Y.).Y.T.T.T.T.T.(.Y.(.T.T.(.W.T.).Y.Q..X                                  ",
"                                       X*XrXsXtXwXoX0XrXoX1XtXoXtXqXoX0XqX#XrX;XoX0X1X#XrX;X].                                  ",
"                                    8XO ~ aXp O.#XX O..X. *.].. A.y.. ].&.. #Xo.X /...+ 2Xi o uX                                ",
"                                    pX;.D.pX_.F.4X%.G.0Xo.#X1Xo.*X:XO.;X#Xo.3X{.%.wX].%.rXZ...*X                                ",
"                                    1X>X4XrXtX<X$X4X>X2X<X=X2X<X:X2X4X1X>X<X;X2X4X1X=XwX:X>XG.D.                                ",
"                                    k = <.r.g w y r y e w q e r t q w w q t y q q q q t t y * k                                 ",
"                                    1.( p.p.k ^ <./ / j ^ ^ <./ ^ j / 3./ ( / ^ / I ( ( j / a h                                 ",
"                                    ,X%XiX0XwXwX$X2X3XwXeX<X(.pXqX4XqX$X<XpX4X3X>X5XtX4X<X1XB.D.                                ",
"                                    P.D >X0X:X,XL 8.4X=XqXL.C %XwX,X%XV M.rX3X4X8.L ,X4X4XG.< 4.                                ",
"                                  uXE 2 H.pXwXL.2 A $XeX>XG 7 b.0XwXw.7 G >XqX%XA 2 K.0X4XY : s dX                              ",
"                                  W.A n.3.^.4XF 8.H E iX8.A w.m &X5Xf M.G 9.sXE T e.n <XW.< Y ; I.                              ",
"                                  p.Q rX! G 9.Z >XT.A L.n n.rXG W ! C ,Xn.d m.d T.,XC ! K V D.K y.                              ",
"                                  .X^.rX/.m 5 n.3XpXT 5 H 4XqXP.A 5 Y.eX1XP 3 W 0X3XH.6 ; 6.N.6.{.                              ",
"                                  8X<X2XpXM.H qX2XrX%XA W.<X>XeXP R eX=X3XW.n (.4X2X2XF M N.C.B..X                              ",
"                                  qXwXeXqX=X(.eX4X<XrX(.qX<XqXwX$X&XqXwXrX3X$XqX<XrX3Xy.C.S.D.j. X                              ",
"                                  0X1.i.2.u.q.0.q.0.1.0.u.r.u.2.i.q.1.u.q.0.0.2.q.r.,.+.>.B / K 7X                              ",
"                                  .Xq 9 & 0 & 0 u 0 0 - = 0 u - 9 = 9 0 0 0 - 9 u 0 $ % * $ % 8  X                              ",
"                                  yXW.}.|.U.R.|.}.E.{.}.|.W.|.U.R..XW.R.}.E.|.}.I.5.7.5.5.6.5.C.                                ",
"                                    pX3X0XrX<XqX4X,XwXrX:X4XwXqX3XwX1XwXwX1XwX4XS.F.Z.Z.N.V.S.G.                                ",
"                                    ;X@ ..wXO +.2X+ &.#XO :.U.X [.V.X ].t.O G...X 6.N o S.# O 7X                                ",
"                                    sXp ;.,Xx t.<X~ S.#X~ ]./.i ]./.# %XG.# 6.%.# V.X.# S.B i yX                                ",
"                                      wX0XpXrXuX3XwXrXrXrXwXeX0XrXwXpXqX*X].Z.S.F.A.F.D.Z.B.5X                                  ",
"                                      aX#X^.W.).).R.R.$XU.).(.%X(.U.U.C.6.6.6.6.7.6.6.4.4.V.dX                                  ",
"                                        |.Z 6 m 4 m 5 6 4 4 6 6 d 5 , , , : , , > < > 1 < U.                                    ",
"                                        aXW.9.n.n.n.n.J.J.M.w.Y J J U U U 4.Y J U 4.U U I.                                      ",
"                                          aXaXwXoX+XqX*XoXD.d.D.A.A.D.*.k.A.B.D.j.*.F.*X                                        ",
"                                            sXaX#._ N.d.V.=.v t.C.B.C.c @.S.C.B._ -.9X                                          ",
"                                              aX8Xk.k.I.;.l l @.V.S.` c b ;.S.S.`.7X                                            ",
"                                                  sX7X.X`.#.j.l j.;.l :.-.k.7X9X                                                ",
"                                                          6X XOXOX].OX                                                          ",
"                                                                                                                                ",
"                                                                                                                                ",
"                                                                                                                                ",
"                                                                                                                                ",
"                                                                                                                                ",
"                                                                                                                                ",
"                                                                                                                                ",
"                                                                                                                                ",
"                                                                                                                                ",
"                                                                                                                                ",
"                                                                                                                                ",
"                                                                                                                                "
};
