/* XPM */
static char *bf22af0f89574e5b8b59b2d521853d5cLMIHyCGlTIFN4l8P[] = {
/* columns rows colors chars-per-pixel */
"64 64 234 2 ",
"   c None",
".  c #543D2A",
"X  c #583D28",
"o  c #5D422C",
"O  c #5B4027",
"+  c #5D4533",
"@  c #5E4A38",
"#  c #62442B",
"$  c #6B4B2D",
"%  c #65472B",
"&  c #624532",
"*  c #654A35",
"=  c #6C4D35",
"-  c #654C3B",
";  c #6C4D3A",
":  c #704F34",
">  c #6D5133",
",  c #6C513D",
"<  c #66503B",
"1  c #745234",
"2  c #795634",
"3  c #74533C",
"4  c #7A553D",
"5  c #7C5A3C",
"6  c #7B5938",
"7  c #74512C",
"8  c #6E5542",
"9  c #6C5846",
"0  c #735642",
"q  c #795640",
"w  c #745A44",
"e  c #7C5B44",
"r  c #745B49",
"t  c #7C5E4A",
"y  c #755F51",
"u  c #7D6146",
"i  c #74624D",
"p  c #7C624C",
"a  c #7B6451",
"s  c #7D6853",
"d  c #7A6B59",
"f  c #7D725F",
"g  c #835D3B",
"h  c #835B3A",
"j  c #8A633C",
"k  c #87623A",
"l  c #946B3D",
"z  c #825D44",
"x  c #825F48",
"c  c #856145",
"v  c #8B6345",
"b  c #84634B",
"n  c #8B654B",
"m  c #84694D",
"M  c #8C6A4C",
"N  c #906645",
"B  c #946A44",
"V  c #91664B",
"C  c #946B4C",
"Z  c #9A6D4C",
"A  c #9A6E44",
"S  c #9D7244",
"D  c #9C724B",
"F  c #95704B",
"G  c #836652",
"H  c #846A55",
"J  c #8C6B53",
"K  c #846D5A",
"L  c #896D5A",
"P  c #946D52",
"I  c #9A6E52",
"U  c #916E59",
"Y  c #8E7254",
"T  c #84715C",
"R  c #8B735B",
"E  c #877053",
"W  c #947254",
"Q  c #9C7254",
"!  c #94745B",
"~  c #9B755A",
"^  c #957A5C",
"/  c #9C7A5D",
"(  c #9B7951",
")  c #A67848",
"_  c #A37555",
"`  c #A57956",
"'  c #A37659",
"]  c #A47A5C",
"[  c #AB7C5C",
"{  c #AC7C54",
"}  c #B17E5D",
"|  c #B07F47",
" . c #857461",
".. c #8C7461",
"X. c #8D7B65",
"o. c #8C7D6B",
"O. c #867C65",
"+. c #927562",
"@. c #937C64",
"#. c #977D67",
"$. c #8F7F72",
"%. c #A47E63",
"&. c #A67F65",
"*. c #B8864D",
"=. c #AC815C",
"-. c #A58054",
";. c #B48454",
":. c #B6855A",
">. c #8E836C",
",. c #878069",
"<. c #9D8265",
"1. c #93856C",
"2. c #9B846B",
"3. c #97876D",
"4. c #958B73",
"5. c #9A8C74",
"6. c #9A8E7A",
"7. c #968472",
"8. c #9B9177",
"9. c #9D937A",
"0. c #8E8671",
"q. c #A58363",
"w. c #AC8264",
"e. c #A3846B",
"r. c #AD846A",
"t. c #A58A6C",
"y. c #AD8A6A",
"u. c #B38363",
"i. c #BA8664",
"p. c #BB8C64",
"a. c #BB8C6B",
"s. c #B28A6B",
"d. c #BC916C",
"f. c #B79169",
"g. c #A38D72",
"h. c #A68A74",
"j. c #B48D72",
"k. c #BA8E70",
"l. c #A2957C",
"z. c #A3997E",
"x. c #AB9C7F",
"c. c #A99277",
"v. c #B59373",
"b. c #BC9373",
"n. c #B8977A",
"m. c #BFA178",
"M. c #CB965C",
"N. c #D59C5B",
"B. c #C38D50",
"V. c #DAA15B",
"C. c #E3A75D",
"Z. c #C28D6A",
"A. c #C28D64",
"S. c #C3926C",
"D. c #CA946C",
"F. c #C99665",
"G. c #D69B64",
"H. c #C39472",
"J. c #CB9672",
"K. c #C59B73",
"L. c #CB9973",
"P. c #C39C7B",
"I. c #C7997A",
"U. c #D39B75",
"Y. c #D39D79",
"T. c #D79C76",
"R. c #D8A367",
"E. c #CCA27C",
"W. c #C3A47D",
"Q. c #DCA373",
"!. c #D4A27B",
"~. c #DBA37B",
"^. c #D7A97A",
"/. c #E4A87B",
"(. c #ECB16C",
"). c #9E9485",
"_. c #A59B82",
"`. c #AA9E83",
"'. c #AA9E8A",
"]. c #A79581",
"[. c #BB9C83",
"{. c #B79B84",
"}. c #A79F90",
"|. c #ABA286",
" X c #ADA38A",
".X c #BCA482",
"XX c #B2A68B",
"oX c #B4AA8D",
"OX c #B8A589",
"+X c #B5AC92",
"@X c #B9AE92",
"#X c #B9A699",
"$X c #BCB295",
"%X c #BDB49A",
"&X c #AFA691",
"*X c #BFB7A0",
"=X c #C69E84",
"-X c #CAA685",
";X c #CBA48C",
":X c #C6A588",
">X c #D2A682",
",X c #DDAB83",
"<X c #D7AA87",
"1X c #CEB18D",
"2X c #D9B388",
"3X c #C9AD97",
"4X c #C3B495",
"5X c #C4BA9E",
"6X c #C7B699",
"7X c #D8B593",
"8X c #D5AD91",
"9X c #E3AB82",
"0X c #E7B388",
"qX c #E6BB95",
"wX c #F3BD93",
"eX c #F4B88C",
"rX c #C8BAA4",
"tX c #D5BCA7",
"yX c #DEC49E",
"uX c #E9C59B",
"iX c #F2C799",
"pX c #D6C6A7",
"aX c #D7C7B5",
"sX c #D1C7AD",
"dX c #E3C7A9",
"fX c #E9DAB9",
"gX c #EFD0AD",
"hX c #F0E3BC",
"jX c #DED4C3",
"kX c #E5D6CA",
"lX c #EDDCD0",
"zX c #EDE5D8",
"xX c #F1E7CF",
"cX c #F3F0E1",
/* pixels */
"                                                                                                                                ",
"                                                                                                                                ",
"                                                                                                                                ",
"                                                                            <X                                                  ",
"                                                          :.  Z.k.v.      ;XaXdX    T.J.J.                                      ",
"                                    k.                =X[.[ Q &.;X3Xj.q.-XdX8X<XJ.Z.                                            ",
"                                  tX      i.    ' i.} &.' I ' I [ } [ [ w.j.[.[.[.[ b.      U.                                  ",
"                                tX;X    r.&.n ' } %.Q } I Q } } } [ [ / h.g.h.+.P &.=X=Xi.} } }                                 ",
"                              P.[.  _ I } } ' I z 3 c ' Z v B P U v Z I 3X).e C ` ' _ [ ~ ' u.                                  ",
"                            i.[ V N N _ [ &.' q.e.! W J t * $ = 3 z 6 4 n r Q M j [ [ [ _ I I _                                 ",
"                            =X%.M 2.~ I V v b m t 3 u r r s 3 p G 4 = = 5 g C j 3 ! Q Q D [ Q [ &.k.3XrX3X                      ",
"                        [ [ j.2.h.! P C z t m $ $ 2 k * , p M 5 u z n x z c Q 4 h , c q = j u.w.[ Z.8XlXgX                      ",
"                          w.U <.U V q * a q r n n = $ h j 3 w 9 e F c 8 c c q G J u - z w 3 v ` n U ' Z.J.Y.                    ",
"                    n.e./ q.c.~ N e & 0 - ; x n P x = - 0 * m c 6 m u a G J H c ` D g 2 k N c A Z C x ! j.;X3X                  ",
"                  v.:X' w.e.n g h q L u * G e t u ; t n 3 = q e 1 m @.u w e c h 6 c c e * c c c ~ c V x %.j.;X                  ",
"                  ) I Z t.p 5 g 4 e x 0 9 8 q b 3 0 r 8 . ; G ].H x 4 6 k w , < 0 0 b d 3 1 4 w n c z v z h.rX                  ",
"            a.I.[ M z U J v z H + , p , 8 4 t n a - & # 1 5 6 M ^ @.M u G > - n $.b 4 0 q z 5 e e u.M N x x =X=X                ",
"            aXkX{.P n c j 2 H #.R M ( B z ; ; 0 a ; o = 3 H r q x q p K  .i = 2 x q ..! e e 3 ; c _ [ g N 4 V Z.T.              ",
"            lXtX_ z x h 1 1 b t q , * w ; ; L +.e 0 5 C w t e z 4 ; 0 t b ~ G q h h $.#X+.0 ; 3 q ; P Z N z = I J.T./.          ",
"            kX{.C 4 4 1 , x K  .9 < < < * ; 7.d ..+.D b J C e e e t q c Q c #X].q 3 3 J e ; 0 r r * u I v v 3 x u.              ",
"          b.#XI z : 7 = 3 - ..r @ 8 8 0 ; q ; ; @.h.J 9 , , e n p i 3 3 x z ' ~ P J x n ! R i e a y a ' x z z 4 V               ",
"          v.%.: 6 X # ; q 8 @.* X 8 G 0 q q ; q s P 0 8 > w f G w p a a t n q z V U ~ J v J a Y G H G I ~ 4 3 ; &.~             ",
"            h.e 4 & - 0 n q - , K #X).+ x q q 0 , w u i s 4.z.8.X.@.#.R ..p x q z z x x 3 6 +.H b t Z ~ ' P = ; 7.&.            ",
"            ;.t z ; 3 8 q r H e...K r ; n ; 0 0 i ,.4.8.3.9.z.8.1.z.'.5.3.3.+.U q 0 n ' n e c x = : 3 ].#.n = e h.r.Y.          ",
"            p.C ; 3 ; 0 r L h.K 8 8 b x 0 q x t K 5.1.>.f R >.1.5.].XX|.9.5.`.g./ @.L M z M ! 1 ; z : e &.q 0 0 r &.i.          ",
"            ] b 4 z + - y #.- @ @ 9 P e 8 R '.5._.l.5.6.8.3.5.>.R 5.z.x.`.4.5.9.5.h.#.J 0 t ' x z z z . - t r L q V I.          ",
"            %.4 & z + t 8 9 0 K . z b 8 R }.8.4.l.z.9.`.oXoXoXoX|.z.5.l.9.9.1.6.8.z.OX#.c '.#Xx J 3 x ; . 0 = b ; &.kXwX        ",
"          #.&.+.* b + - 8 X V q . b ..8 o.0.>.c.g.7.9.z.8.|.oXoX%X@X_.8.|.8.4.|.].6.XXc.%.W {.I G - G G ~ &.Z.%.q &.dXR.R.C.    ",
"            v.~ M C 8  .0 e G . - x 8 $.6.6.5.1.>.o.8._.|.9.x.9.|.$XXXXXoXoXoX9.|.l.z.l.>.^ e c x ; y L u.H.u.e q Z.L.          ",
"            h 1 _ b.@.a P n - + . 0 G +.>.2.@.4.>.4._.%X%X_.|.|.$X|.z.z.9.$X$Xz. X+Xl.5.O.u 6 H G b r a t e * X n k.aX          ",
"            6 h z J.w., P M n 8 & 8 G ].6.1.1.8._.|.|.@X|. X@X@XoXoX$X|.9.8.9.z.l.4.5.l.1.5.u 4 K c r q 0 t $ $ N J 6XxX        ",
"        uX=.h z 3 z I C x Q b r - q $.$.2.2.6.].z.|.9.9. X%XsXXX|.$X|.XX|.|.oX9.4.1.1.5.6.`.@.- p a y  .0 o j ) l 2.jXxX        ",
"        ^.u.U #.D : X M I m 0 y @ 0 K 0.8._.8.z.3.|.8.|.pX5X5X5X$X$X|.$XoXx.oX|.1.9.8.l.].5.].X.q n 8 0 n ; 2 p - R xXhX        ",
"        i.L.d.n.r.h X # Q d.t 9 9 @ d 4.5._.9.9.oX|.4.@X5X%XoX|.oX5XsX$X5X%X|.|.1.>.9.9.z.9.'.o.o.J x z c 0 *  .0.n.yX          ",
"            K.;._ Z = # ; [ K.H @ G o. X5.4.9.z.@XoX X%X X$X4X_.oX4XpXoX|.|.|.9.9.1.6.5.).4.4.$.K b x q 3 3 1 Y OXt.b.  (.      ",
"              d.) { _ O & b [ w.M ! o.'.l.6.4.>.oX%X%XjX*X@XXXXX4X$XoX|.|.|.4.8.9.4.4.@._.9.9.&Xo.+.n & o > ( <.( ` V.C.        ",
"              d.z =.;.3 O u n ] H.+.1.9.1.z.>.T  X%XXXoX+X+X|.5X$X$X%X|.|.8.,._.9.4.O.o.7.4.6.X.+.I g 1 : j B S ;.n.            ",
"              W e q 6 l $ * 3 I &.L.x.#X8.3.>.5.9.z._.XX$XXX|.+X X|.*XaX X0.|.9.1. .T  X5.4.l.q.V 1 7 7 l S N Z 6XfX            ",
"            d.<Xj.i.i.Q g 2 # h Q ' k.8X8.3.0.8.9.|. X_.|.|.%X%XoX|.%X X|._.XX|.>.3.4.].6.g./ z 3 X X $ k m 4 I pXtX            ",
"              -XrXS.V M u 1 $ o h +.>.2.b.XX4.9.z.oXz.9._.oX_.|.+X|. X0.6.oX|._. X9.O.0.5.J % # # X # S 5 4 c Z f.R.C.          ",
"                1X7X~ u.E.m k F _ [ K f <.v.g._.`.4.|.XXz.8.z. XsX X9.4.>.2.5.z.t.,.9.t.` g 4 5 2 6 [ D.S ) ) { p.Q.            ",
"              S.f.4X4X~ u.!.,X^.L.Y.P.i d t.j.1.z.z.z.z.z.$XOX|.+X X|.4._..X/ ! b R ! v B j h h { M.-.` i.Z.T.0XeXwXeX          ",
"                  pXfXsXg.<.B <.t.Y ! J T _.@.W 2.x.:Xn.-Xm.n.z.3.8.0.8.5.w.~ J u 5 h k $ * e _ _ h o , Q Z <X;X=X              ",
"                    fXdXpX3.O * u <.W W =.I.E.L.L.J.S.Z.s.w.] c.3.2.8.n.L.r.'.J k 2 =.^ t 5 B j l j S *.N.M.N.;.                ",
"                    jXP.E..XR z S p.m.M M I w.e.E W C 4 4 z I x m v M 4 b b.H.{ k Z w.C W W ^ W.2XpXu.` 1Xv.n.&.                ",
"                  b.gX0X0XiX0Xu.F l m.<.1 h j j e H b v h z Z ! Y A C z %.[ { i.Z.E.n.6XpXfXaXdXdXc.s c.2.+.rX#XU.              ",
"                      iX2X<X>XW i @ i XXY > 8 6 l S t z V z M p.R.~.J.' V z / n.9XY.b./ ! p.S.u.D.Q.t.oXv.r.H.7X                ",
"                        e.:X2XU.!.q.m d XXi , & % k *.*.A.T.0XQ.u.i.' } A.J.9X0XY.%.m I S _ ` w.a.^.0X1X-XiXiX0X                ",
"                        '.kX;XI I S.~.~.K.` _ ` v z Z ;.Q.S.:.S N ;.d.W Q a.L.d.d.F.u.Q g & 3 e e P <XqXwXwXwX                  ",
"                        ;X;XH.b * 4 g ;.N.*.N.G.Z.D.Z.[ ' ] 3 ; z k F.2Xf.=..Xu [ S.=.Q x & & U ' ] XX3XiX  T.                  ",
"                          2X7XJ.Z.[ 4 4 B ) ) M.q.a.a.u.q.v.^ 5 ] K.L.u.-XuX^.M.G.=.-.Z 4 v ] r.r.8X1Xn.                        ",
"                          dXqX;XgXL.Q v c 3 3 K.,X>XE.E.E.,X,XqX!.[ e > 4X2X>X^.B A ) ) | _ Z.Y.qXkXtX                          ",
"                            L.7XzX<Xi.' i.:.A c j 6 o 3 g c x e.g.q 0 4X7XB _ a.n ; g C ;.=./.iXlXzXaX                          ",
"                              R.(.M.G.!.p.v v v ^ v B ) *.*.B.M R x.pX7XF o w ' ] M n A./.uXiXhXcX                              ",
"                                  (./.L.<Xd.E.0XuXE.:.S m W S B ..$X.Xm.` 5 - z I C [ T.-X>X,X                                  ",
"                                  9X0X~.~.wX0XU.K.pXW.L.U.&.D [.pX2.=.d.a.p.H.L.J.Q 8XdX7X!.                                    ",
"                                          <X&.T.9XqXgX<XqX>X~.:Xk.~./.,X,XQ./.S.=.( fXxXaX                                      ",
"                                                wXwX1Xn.3X[.H.J.Y.9X/.F.D.T.,Xm.n.pXfXjXxX                                      ",
"                                                  dX7XY.U.Y.U.Y.<Xa.9X9X/.(.R.uXdXgXiX                                          ",
"                                                            ,X9X9XJ.                                                            ",
"                                                                                                                                ",
"                                                                                                                                ",
"                                                                                                                                ",
"                                                                                                                                "
};
