/* XPM */
static char *_eb9899c72c04c3bc18679c41c950e53dRs9SwQCPJIhACkp[] = {
/* columns rows colors chars-per-pixel */
"64 64 142 2 ",
"   c None",
".  c #1A1617",
"X  c #1F1B1C",
"o  c #211D1E",
"O  c #26211F",
"+  c #2B251F",
"@  c #332C1E",
"#  c #37301E",
"$  c #3B341E",
"%  c #1F1C20",
"&  c #221E20",
"*  c #252122",
"=  c #292526",
"-  c #2B2728",
";  c #2D292A",
":  c #312D2E",
">  c #322F30",
",  c #353132",
"<  c #393536",
"1  c #3A3738",
"2  c #3D3A3B",
"3  c #40371D",
"4  c #41381D",
"5  c #483E1D",
"6  c #403D3E",
"7  c #4D431C",
"8  c #574C1C",
"9  c #5C4F1B",
"0  c #63561B",
"q  c #77661A",
"w  c #7D6C19",
"e  c #454243",
"r  c #484546",
"t  c #4A4748",
"y  c #4D4A4B",
"u  c #514E4F",
"i  c #524F50",
"p  c #555353",
"a  c #585656",
"s  c #5A5758",
"d  c #5C5A5A",
"f  c #605E5E",
"g  c #656363",
"h  c #6A6768",
"j  c #6D6B6B",
"k  c #706E6E",
"l  c #747273",
"z  c #787677",
"x  c #797778",
"c  c #7D7B7B",
"v  c #8C7917",
"b  c #847218",
"n  c #897618",
"m  c #8D7918",
"M  c #807E7F",
"N  c #988416",
"B  c #A78F15",
"V  c #AB9215",
"C  c #B19915",
"Z  c #B99F14",
"A  c #BDA214",
"S  c #C1A514",
"D  c #C6AA13",
"F  c #CDAE13",
"G  c #D3B412",
"H  c #DFBF11",
"J  c #F2CE0F",
"K  c #F7D20F",
"L  c #F9D30F",
"P  c #E5C411",
"I  c #ECC910",
"U  c #F1CD10",
"Y  c #F6D110",
"T  c #F9D410",
"R  c #827F80",
"E  c #858383",
"W  c #888687",
"Q  c #898788",
"!  c #8B898A",
"~  c #908F8F",
"^  c #918F90",
"/  c #939292",
"(  c #989697",
")  c #9D9C9C",
"_  c #A09F9F",
"`  c #A4A3A4",
"'  c #A8A6A7",
"]  c #ACAAAB",
"[  c #B4B2B3",
"{  c #B8B7B7",
"}  c #B8B7B8",
"|  c #BDBCBC",
" . c #C0BFBF",
".. c #C0BFC0",
"X. c #C4C3C3",
"o. c #CCCCCC",
"O. c #D0CFCF",
"+. c #D0D0D0",
"@. c #D2D1D1",
"#. c #D3D2D3",
"$. c #D4D4D4",
"%. c #D9D8D9",
"&. c #DBDADA",
"*. c #DDDDDD",
"=. c #DFDEDE",
"-. c #DBDADB",
";. c #E0DFDF",
":. c #E3E3E3",
">. c #E4E3E3",
",. c #E6E6E6",
"<. c #E7E7E7",
"1. c #E4E3E4",
"2. c #E8E7E8",
"3. c gray91",
"4. c #ECECEC",
"5. c #EDECED",
"6. c gray93",
"7. c #EEEDEE",
"8. c #EFEFEF",
"9. c #EDECED",
"0. c gray94",
"q. c gray95",
"w. c #F3F3F3",
"e. c #F4F3F3",
"r. c #F5F4F4",
"t. c gray96",
"y. c #F6F6F6",
"u. c gray97",
"i. c #F4F4F4",
"p. c #F8F7F8",
"a. c #F8F8F8",
"s. c #F9F9F9",
"d. c gray98",
"f. c #FAFAFB",
"g. c #FBFBFB",
"h. c gray99",
"j. c #FDFDFD",
"k. c #FDFEFE",
"l. c #FEFEFE",
"z. c #FFFFFE",
"x. c white",
"c. c #FEFEFE",
/* pixels */
"                                                                                                                                ",
"                                        * * * & o & o * * ;                                                                     ",
"                                  ; * o o & = ; , : ; * o o * =                                                                 ",
"                                = & o ; a ! { o.@.O.X.' x e * o * ;                                                             ",
"                              * & * f | 8.x.x.x.x.x.x.x.x.:.) r o * -                                                           ",
"                            * o ; ^ 8.x.x.x.x.x.x.x.x.x.x.x.x.&.j * o -                                                         ",
"                          * o : ` d.x.x.x.x.x.x.x.x.x.x.x.x.x.x.q.c * * ;                                                       ",
"                          o = ( d.x.x.x.x.x.x.x.x.x.x.x.x.x.x.h.x.4.g o *                                                       ",
"                        & o h q.x.x.x.x.x.x.x.x.x.x.x.x.x.x.x.g.x.x.+.2 o -                                                     ",
"                        o < o.x.x.x.x.x.x.x.x.x.x.x.x.x.x.x.x.x.x.x.x.Q o *                                                     ",
"                      * o z d.x.x.x.x.x.x.x.x.x.x.x.x.x.x.x.x.x.x.x.x.@.< o                                                     ",
"                      & - | x.x.x.x.x.x.x.x.x.x.x.x.x.x.x.x.x.x.x.x.x.y.f o *                                                   ",
"                      o r 3.x.x.x.:.o.i.x.x.x.x.x.x.x.x.x.x.x.x.x.x.x.x.Q o *                                                   ",
"                    * X h h.x.x.o.y : c q.x.x.x.x.x.x.x.x.x.x.x.x.x.x.x.' * *                                                   ",
"                    * o Q x.x.a.j o o = | x.x.x.x.x.x.x.x.x.x.x.x.x.h.x.| = *                                                   ",
"                    * o ) x.x.3.e X * X ~ x.x.x.x.x.x.x.x.x.x.x.x.x.h.x.X.= ;                                                   ",
"                    * o W u.x.<.u   o o / x.x.x.x.x.x.x.x.x.x.x.x.x.h.x.X.; ;                                                   ",
"                    * & ; ! a.y.[     - | x.x.x.x.x.x.x.x.x.x.x.x.x.d.x.{ : -                                                   ",
"                  * o O o ; | x.<.    E q.x.x.x.x.x.x.x.x.x.x.x.d.d.d.x.) * :                                                   ",
"                - & $ N $ o h a.x.3.;.y.x.x.x.x.x.x.x.x.x.x.x.g.d.x.p.d.M * >                                                   ",
"              ; & & m K n o ; ' <.d.x.x.x.x.x.x.x.x.x.x.x.x.x.x.x.x.h.3.s = :                                                   ",
"        : ; = & & 0 P T G 3 o - e E =.x.x.x.x.x.x.x.x.x.x.x.g.g.d.h.x.o.< *                                                     ",
"  = * & & & % @ w H K K K V # o X o p &.x.x.x.x.x.x.x.x.x.x.x.g.d.x.x.E * *                                       = * *         ",
"  * o + @ 7 w A U K K K K Y D m 8 * X j y.x.x.x.x.x.x.x.x.x.x.d.d.x.&.2 o =                                       = o & =       ",
"- & 7 Z G I K K K K K K K K K K P q o , #.x.x.x.x.x.x.x.x.x.x.x.x.h.( o *                                       = o * * o       ",
"; & 5 P L K K K K K K K K K K K L A + = | x.x.x.x.x.x.x.x.x.x.x.x.d.j X =                                     = & = E a o *     ",
"  * & b J K K K K K K K K K K K I q o , @.x.x.x.x.x.x.x.x.x.x.x.x.y.g X -                                     * & c y.` * &     ",
"  - & + m P K K K K K K K K K I b O X l y.x.x.x.x.x.x.x.x.x.x.x.x.x.W X *                                 , = o y >.x.=.2 o     ",
"    = & O 9 C P L L L K L L J b O X y -.x.x.x.x.x.x.x.x.x.x.x.x.x.x.X., o = -                         : = o X < [ x.x.y.g X *   ",
"      - & & = 7 w V S F G F m + X i @.x.x.x.x.x.x.x.x.x.x.x.x.x.x.x.x.) : X o * = - : , 1 1 < > ; = * o o : h X.d.x.x.x.! o *   ",
"        - * * o X * + @ @ @ * X e @.x.x.x.x.x.x.x.x.x.x.x.x.x.x.x.x.x.d.| h < * o X o o o & o o o o = e c X.q.x.x.x.x.x.] * *   ",
"              = * * * o & o o e ..x.x.x.x.x.x.x.x.x.x.x.x.x.x.x.x.x.x.x.x.y.%.` x a e < < < 2 y g Q { >.d.x.x.x.x.x.x.x.X.; &   ",
"                        < = o / x.x.x.x.x.x.x.x.x.x.x.x.x.x.x.x.x.x.x.x.x.x.x.x.x.q.<.&.%.&.=.8.y.x.x.x.x.h.x.x.x.x.x.x.$.< &   ",
"                          * * [ x.x.x.x.x.h.x.x.x.x.x.x.x.x.x.x.x.x.x.x.x.g.x.x.x.x.x.x.x.x.x.x.x.x.x.x.x.h.x.x.x.h.h.x.;.e ;   ",
"                          * : @.x.d.x.h.d.x.x.x.x.x.x.x.x.x.x.x.x.x.x.x.x.x.x.x.x.x.x.x.x.x.x.x.x.x.x.x.x.x.x.x.x.h.h.d.>.u &   ",
"                        = o u 8.x.d.h.d.d.x.x.x.x.x.x.x.x.x.x.x.x.x.x.x.x.x.x.x.x.x.x.x.x.x.x.x.x.x.x.x.x.x.x.x.d.d.h.x.2.u =   ",
"                        = o M h.d.x.d.d.d.d.x.x.x.x.x.x.x.x.x.x.x.x.x.x.x.x.x.x.x.x.x.x.x.x.x.x.x.h.x.h.x.x.x.d.h.h.d.x.3.u - > ",
"                        & * [ x.h.h.h.x.d.x.d.x.x.x.x.x.x.x.x.x.x.x.x.x.x.x.x.x.x.x.x.x.x.x.x.x.x.x.x.x.x.h.x.h.h.d.u.a.3.i & : ",
"                        & < $.x.x.d.d.x.x.d.d.x.x.x.x.x.x.x.x.x.x.x.x.x.x.x.x.x.x.x.x.x.x.x.x.x.x.x.+.x | x.h.d.x.h.x.x.>.r o   ",
"                        o u 3.h.h.d.p.d.d.d.x.d.x.x.x.x.x.x.x.x.x.x.x.x.x.x.x.x.x.x.x.x.x.x.x.x.x.x.E . d y.x.d.d.h.p.x.%.1 &   ",
"                      = X g u.d.d.d.d.d.h.d.x.x.x.x.x.x.x.x.x.x.x.x.x.x.x.x.x.x.x.x.x.x.g.x.x.x.x.h.l X p 8.d.d.d.d.h.x.X.; *   ",
"                      * o c h.h.d.x.x.d.h.x.x.x.x.x.x.x.x.x.x.x.x.x.x.x.x.x.x.x.x.x.x.x.x.x.&.! ` ^ < X l d.x.x.d.h.h.x.' * =   ",
"                      * o W h.d.x.d.d.d.d.x.x.x.x.x.x.x.x.x.x.x.x.x.x.x.x.x.x.x.x.x.x.x.x.x.E X o o o : | x.d.h.h.h.h.h.R o ;   ",
"                      : = ~ h.d.h.d.x.x.x.x.x.x.x.x.x.x.x.x.x.x.x.x.x.x.x.x.x.x.x.x.x.x.x.x.' < = * - ) y.d.x.d.h.h.x.7.p o ;   ",
"                      : ; W h.x.h.d.h.x.x.x.x.x.x.x.x.x.x.x.x.x.x.x.x.x.x.x.x.x.g.x.x.x.h.x.d.&.h O e ;.x.h.d.x.h.d.x.o.> *     ",
"                      - = R d.d.h.h.x.x.x.x.x.x.x.x.x.x.x.x.x.x.x.x.x.x.x.x.x.x.-.` o.8.d.d.y.| e X g i.p.h.d.d.h.x.x.~ o *     ",
"                      : * g i.d.x.x.x.x.x.x.x.x.x.x.x.x.x.x.x.x.x.x.x.x.x.x.x.d.l o > p h l s : o : [ g.h.h.h.d.x.x.2.y o -     ",
"                        - e :.x.x.x.x.x.x.x.x.x.x.x.x.x.x.x.x.x.x.x.x.x.x.x.x.d.Q = o X o o o X < ( y.g.h.h.h.h.x.x.` * *       ",
"                        = - | x.x.x.x.x.x.x.x.x.x.x.x.x.x.x.x.x.x.x.x.x.x.x.x.x.q.{ R y * * y z X.y.d.g.d.g.x.x.x.:.y o =       ",
"                        * o c x.x.x.x.x.x.x.x.x.x.x.x.x.x.x.x.y.` _ 8.x.x.x.x.x.x.x.a.Q o ; X.d.g.g.g.g.g.g.x.x.g.Q & *         ",
"                        - o 2 $.x.x.x.x.x.x.x.x.x.x.x.x.x.x.x.o.; * h X.q.h.x.x.d.*.Q ; X d 8.d.g.d.x.d.g.x.x.x.| , o -         ",
"                          * & c p.x.x.x.x.x.x.x.x.x.x.x.x.x.x.>.p o o : s x ! Q j 6 * o 1 X.x.y.x.g.d.x.x.x.x.$.t o *           ",
"                          ; o ; ] x.x.x.x.x.x.x.x.x.x.x.x.x.x.x.-.l ; o X X X X X X = d X.y.h.x.g.g.g.x.x.x.=.a o *             ",
"                            = o 2 ..x.x.x.x.x.x.x.x.x.x.x.x.x.g.x.y.X.c i 1 , , 6 g ` 3.x.x.h.d.g.g.x.x.x.#.a o * ;             ",
"                              * o 2 { h.x.x.x.x.x.x.x.x.x.x.x.x.x.x.x.h.8.=.$.$.:.r.x.h.g.d.g.d.x.g.x.g.| r o * -               ",
"                                * o , / 3.x.x.x.x.x.x.x.x.x.x.x.x.x.x.x.x.x.x.x.x.x.h.h.x.d.d.x.x.x.:.W ; o * -                 ",
"                                  * o * a [ 8.x.x.x.x.x.x.x.x.x.x.x.x.x.x.x.x.x.x.x.g.d.x.g.x.x.<.` y o o *                     ",
"                                    - * o = a ` &.y.x.x.x.x.x.x.x.x.x.x.x.x.x.x.x.x.x.x.x.q.o.~ t * o * =                       ",
"                                        = * o & < g ( | &.3.y.d.h.x.x.x.x.x.x.d.u.4.&.{ Q d , o o & *                           ",
"                                          ; = * o X o = 1 y g l E ~ / ( ( / W l g t < = o X o * *                               ",
"                                                ; = * * o o X X o o o o o o o X X o o * * * =                                   ",
"                                                        : : ; = * = = * * * & * = = =                                           ",
"                                                                                                                                ",
"                                                                                                                                "
};
