/* XPM */
static char *e9074f7c258d4a20a73f721575d6dbbcGBnFyWEvQn5b4VJm[] = {
/* columns rows colors chars-per-pixel */
"64 64 142 2 ",
"   c None",
".  c #1A1617",
"X  c #1F1B1C",
"o  c #211D1E",
"O  c #26211F",
"+  c #2B251F",
"@  c #332C1E",
"#  c #37301E",
"$  c #3B341E",
"%  c #1F1C20",
"&  c #221E20",
"*  c #252122",
"=  c #292526",
"-  c #2B2728",
";  c #2D292A",
":  c #312D2E",
">  c #322F30",
",  c #353132",
"<  c #393536",
"1  c #3A3738",
"2  c #3D3A3B",
"3  c #40371D",
"4  c #41381D",
"5  c #483E1D",
"6  c #403D3E",
"7  c #4D431C",
"8  c #574C1C",
"9  c #5C4F1B",
"0  c #63561B",
"q  c #77661A",
"w  c #7D6C19",
"e  c #454243",
"r  c #484546",
"t  c #4A4748",
"y  c #4D4A4B",
"u  c #514E4F",
"i  c #524F50",
"p  c #555353",
"a  c #585656",
"s  c #5A5758",
"d  c #5C5A5A",
"f  c #605E5E",
"g  c #656363",
"h  c #6A6768",
"j  c #6D6B6B",
"k  c #706E6E",
"l  c #747273",
"z  c #787677",
"x  c #797778",
"c  c #7D7B7B",
"v  c #8C7917",
"b  c #847218",
"n  c #897618",
"m  c #8D7918",
"M  c #807E7F",
"N  c #988416",
"B  c #A78F15",
"V  c #AB9215",
"C  c #B19915",
"Z  c #B99F14",
"A  c #BDA214",
"S  c #C1A514",
"D  c #C6AA13",
"F  c #CDAE13",
"G  c #D3B412",
"H  c #DFBF11",
"J  c #F2CE0F",
"K  c #F7D20F",
"L  c #F9D30F",
"P  c #E5C411",
"I  c #ECC910",
"U  c #F1CD10",
"Y  c #F6D110",
"T  c #F9D410",
"R  c #827F80",
"E  c #858383",
"W  c #888687",
"Q  c #898788",
"!  c #8B898A",
"~  c #908F8F",
"^  c #918F90",
"/  c #939292",
"(  c #989697",
")  c #9D9C9C",
"_  c #A09F9F",
"`  c #A4A3A4",
"'  c #A8A6A7",
"]  c #ACAAAB",
"[  c #B4B2B3",
"{  c #B8B7B7",
"}  c #B8B7B8",
"|  c #BDBCBC",
" . c #C0BFBF",
".. c #C0BFC0",
"X. c #C4C3C3",
"o. c #CCCCCC",
"O. c #D0CFCF",
"+. c #D0D0D0",
"@. c #D2D1D1",
"#. c #D3D2D3",
"$. c #D4D4D4",
"%. c #D9D8D9",
"&. c #DBDADA",
"*. c #DDDDDD",
"=. c #DFDEDE",
"-. c #DBDADB",
";. c #E0DFDF",
":. c #E3E3E3",
">. c #E4E3E3",
",. c #E6E6E6",
"<. c #E7E7E7",
"1. c #E4E3E4",
"2. c #E8E7E8",
"3. c gray91",
"4. c #ECECEC",
"5. c #EDECED",
"6. c gray93",
"7. c #EEEDEE",
"8. c #EFEFEF",
"9. c #EDECED",
"0. c gray94",
"q. c gray95",
"w. c #F3F3F3",
"e. c #F4F3F3",
"r. c #F5F4F4",
"t. c gray96",
"y. c #F6F6F6",
"u. c gray97",
"i. c #F4F4F4",
"p. c #F8F7F8",
"a. c #F8F8F8",
"s. c #F9F9F9",
"d. c gray98",
"f. c #FAFAFB",
"g. c #FBFBFB",
"h. c gray99",
"j. c #FDFDFD",
"k. c #FDFEFE",
"l. c #FEFEFE",
"z. c #FFFFFE",
"x. c white",
"c. c #FEFEFE",
/* pixels */
"                                                                                                                                ",
"                                                                    ; * * o & o & & * *                                         ",
"                                                                = * o o * ; > , ; = o o & * ;                                   ",
"                                                            ; * o * e x ' X.O.@.o.} ! a ; o & =                                 ",
"                                                          ; & o e _ >.s.x.x.x.x.x.x.x.6.| f * o =                               ",
"                                                        - O * k *.x.x.x.x.x.x.x.x.x.x.x.x.6./ ; o *                             ",
"                                                      ; & * c 6.x.x.x.x.x.x.x.x.x.x.x.x.x.x.s.' : o &                           ",
"                                                      * o g 6.x.x.x.x.x.x.x.x.x.x.x.x.x.x.x.x.s.( = o                           ",
"                                                    - o 2 @.x.x.x.x.x.x.x.x.x.x.x.x.x.x.x.x.x.x.e.h o *                         ",
"                                                    * o ! s.x.x.x.x.x.x.x.x.x.x.x.x.x.x.x.x.x.x.x.o., o                         ",
"                                                    o < @.x.x.x.x.x.x.x.x.x.x.x.x.x.x.x.x.x.x.x.x.s.z o *                       ",
"                                                  * o f r.x.x.x.x.x.x.x.x.x.x.x.x.x.x.x.x.x.x.x.x.x.| - &                       ",
"                                                  * o ! x.x.x.x.x.x.x.x.x.x.x.x.x.x.x.x.w.@.:.x.x.x.<.r o                       ",
"                                                  * * ' x.g.x.x.x.x.x.x.x.x.x.x.x.x.x.e.c ; y o.x.x.h.h o *                     ",
"                                                  * = | x.x.x.x.x.x.x.x.x.x.x.x.x.x.x.| - o X j u.x.x.! o *                     ",
"                                                  ; -  .x.x.g.x.x.x.x.x.x.x.x.x.x.x.x.! o * X e 3.x.x.) o *                     ",
"                                                  ; ; X.x.h.x.x.x.x.x.x.x.x.x.x.x.x.x./ o o   u <.x.r.E o *                     ",
"                                                  - : { x.h.x.x.x.x.x.x.x.x.x.x.x.x.x.| -     [ r.s.! ; o *                     ",
"                                                  : = ) x.s.x.s.x.g.x.x.x.x.x.x.x.x.x.w.E     <.x.| : o O O *                   ",
"                                                  : * M r.s.g.x.g.x.x.x.x.x.x.x.x.x.x.x.r.;.6.x.r.h X 4 N $ % -                 ",
"                                                  : = s 4.h.h.x.h.x.x.x.x.x.x.x.x.x.x.x.x.x.s.3.' ; o n T n O * ;               ",
"                                                    * < o.x.h.h.h.x.x.x.x.x.x.x.x.x.x.x.x.*.E e - % 4 G T P 0 % * = - ;         ",
"        * * =                                       * * E h.h.s.s.x.x.x.x.x.x.x.x.x.x.x.%.a X X % # V K K K H w @ % % * & * =   ",
"      * * & *                                       - & 2 %.x.g.x.x.x.x.x.x.x.x.x.x.x.e.k X O 8 m D Y K K Y L U A w 7 @ + & *   ",
"      * * * o =                                       * * ( x.h.x.x.x.x.x.x.x.x.x.x.x.@., o q I K K K K K K K K L K P G A 7 X - ",
"    * X a E = o =                                     = X j a.x.x.x.x.x.x.x.x.x.x.x.x.| = = A L K K K K K K K K K K K L P 5 % ; ",
"    & * ' r.c & *                                     = X g a.x.x.x.x.x.x.x.x.x.x.x.x.@.> o q I L K K K K K L K K K K K b * *   ",
"    o 2 *.x.:.t o = ,                                 * X E x.x.x.x.x.x.x.x.x.x.x.x.x.r.l X O b I K K K K K K K Y T P n + & ;   ",
"  * o g u.x.x.[ , X & = :                         ; * o , o.x.x.x.x.x.x.x.x.x.x.x.x.h.x.&.u o o b J L L L L L L P C 9 O o =     ",
"  * o ! x.x.x.s.X.h ; o o * * ; > < 1 1 , : ; * * o o : ) s.x.x.x.x.x.x.x.x.x.x.x.x.x.x.x.#.i X + v F G F S V w 7 + % * -       ",
"  * * ] x.x.x.x.x.r.X.c e = o o o o o o & o o X * < h | s.x.x.x.x.x.x.x.x.x.x.x.x.x.x.x.x.x.@.e o O @ @ @ = & & o & * ;         ",
"  & ; X.x.x.x.x.x.x.x.h.>.} ! g y 2 < < 1 e a z ' $.s.x.x.x.h.x.x.x.x.x.x.x.x.x.x.x.x.x.x.x.x.X.6 o o o & & * * =               ",
"  * < $.x.x.x.x.x.h.x.h.h.x.x.p.6.;.%.%.&.<.w.h.x.x.h.x.x.x.x.x.x.x.x.x.x.x.x.x.x.x.x.x.x.x.x.x./ o * 1                         ",
"  - e *.h.h.x.x.x.x.x.x.x.x.x.x.x.x.x.x.x.x.x.x.h.x.x.x.x.x.x.x.x.x.x.x.x.x.x.x.x.x.h.x.h.x.x.x.[ * *                           ",
"  * y <.h.h.h.x.x.x.x.x.x.x.x.x.x.x.x.x.x.x.x.x.x.x.x.x.x.x.x.x.x.x.x.x.x.x.x.x.x.x.x.h.h.x.x.x.+., &                           ",
"  * i <.x.h.s.h.h.x.x.x.x.x.x.x.x.x.x.x.x.x.x.x.x.x.x.x.x.x.x.x.x.x.x.x.x.x.x.x.x.x.h.x.h.s.s.x.6.i o =                         ",
", = u 3.x.s.h.h.g.x.h.x.x.x.h.x.x.x.x.x.x.x.x.x.x.x.x.x.x.x.x.x.x.x.x.x.x.x.x.g.x.s.s.s.h.s.x.h.g.R X =                         ",
"; * i 3.s.a.s.x.h.x.h.x.h.x.x.x.x.x.x.x.x.x.x.x.x.x.x.x.x.x.x.x.x.x.x.x.x.x.x.x.x.x.x.g.x.x.s.s.x.[ = *                         ",
"  & r 1.x.h.h.x.h.h.x.| x @.x.x.x.x.x.x.x.x.x.x.x.x.x.x.x.x.x.x.x.x.x.x.x.x.x.x.x.s.h.h.x.s.s.x.x.%.< o                         ",
"  & < %.x.a.h.s.h.x.r.d . E x.x.x.x.x.x.x.x.x.x.x.x.x.x.x.x.x.x.x.x.x.x.x.x.x.x.x.x.s.g.x.r.p.x.g.3.y o                         ",
"  * ; X.x.s.s.s.g.g.0.a . z h.x.x.x.x.x.x.x.x.x.x.x.x.x.x.x.x.x.x.x.x.x.x.x.x.x.x.x.s.s.h.s.s.h.s.r.g o *                       ",
"  = * ' x.x.s.x.h.x.s.l X < ~ ` ~ %.x.x.x.x.x.x.x.x.x.x.x.x.x.x.x.x.x.x.x.x.x.x.x.g.x.x.h.x.x.h.x.h.c X *                       ",
"  ; o R h.x.s.x.h.h.x.| : o O o X E x.x.x.x.x.x.x.x.x.x.x.x.x.x.x.x.x.x.x.x.x.x.x.x.x.g.s.s.s.s.s.h.! o =                       ",
"  ; o p 6.x.s.h.s.x.s.r.) - * * < ' x.x.x.x.x.x.x.x.x.x.x.x.x.x.x.x.x.x.x.x.x.x.x.x.x.x.x.x.h.x.s.h.^ = ;                       ",
"    & > o.x.s.x.x.s.g.x.;.r * h %.s.x.x.g.x.x.x.x.x.x.x.x.x.x.x.x.x.x.x.x.x.x.x.x.x.x.x.x.g.h.h.x.h.Q ; :                       ",
"    * o / x.x.s.s.g.x.u.e.g X e X.e.s.g.6.o.' &.x.x.x.x.x.x.x.x.x.x.x.x.x.x.x.x.x.x.x.x.x.x.g.x.s.h.R * -                       ",
"    - o y <.x.x.g.g.x.g.x.[ : o : s l h p : X l s.x.x.x.x.x.x.x.x.x.x.x.x.x.x.x.x.x.x.x.x.x.x.s.h.e.g = :                       ",
"      & * ` x.x.x.g.g.g.g.r.( , X o X X X X = ! s.x.x.x.x.x.x.x.x.x.x.x.x.x.x.x.x.x.x.x.x.x.x.x.x.>.e -                         ",
"      = o y <.x.x.x.s.s.x.u.e.X.z y * * y c } w.x.x.x.x.x.x.x.x.x.x.x.x.x.x.x.x.x.x.x.x.x.x.x.x.x.| ; =                         ",
"        * & ! s.x.x.x.h.s.x.h.x.s.X.; O Q s.x.x.x.x.x.x.x.0._ ` r.x.x.x.x.x.x.x.x.x.x.x.x.x.x.x.h.c o *                         ",
"        - o > | x.x.x.g.h.h.s.h.x.6.d X ; W *.s.x.x.s.w.X.h * : o.x.x.x.x.x.x.x.x.x.x.x.x.x.x.x.%.2 o -                         ",
"          * o t #.x.x.h.x.s.s.x.r.x. .2 * * 2 k ! ! x a : o o p <.x.x.x.x.x.x.x.x.x.x.x.x.x.x.s.c o *                           ",
"            * o a *.x.x.x.h.s.x.x.g.s...d = X X X X X . X ; l %.x.x.x.x.x.x.x.x.x.x.x.x.x.x.x.] ; o ;                           ",
"            ; * o a $.x.x.x.h.s.g.s.x.x.3.` g 2 , , 2 p M X.e.x.x.x.x.x.x.x.x.x.x.x.x.x.x.x...2 o =                             ",
"              ; * o e } s.x.x.s.s.x.g.g.x.x.i.:.$.$.*.6.h.x.x.x.x.x.x.x.x.x.x.x.x.x.h.x.s.} 6 o *                               ",
"                ; & o > Q >.x.x.x.g.s.g.x.s.x.x.x.x.x.x.x.x.x.x.x.x.x.x.x.x.x.x.x.x.x.3./ , o *                                 ",
"                    * o & y ` <.x.x.s.x.s.x.x.x.x.x.x.x.x.x.x.x.x.x.x.x.x.x.g.x.x.6.[ a * o *                                   ",
"                      = & o * t / o.w.g.x.x.x.x.x.x.x.x.x.x.x.x.x.x.x.x.x.x.r.%.` a - o * =                                     ",
"                          * O o o , s ! { %.4.r.s.x.x.x.x.x.x.x.s.r.6.*.| ( g 2 & o * *                                         ",
"                              * * o o o = < y g z E ~ ( ( ( ! E l f y 1 = o X o * = :                                           ",
"                                  = * * * o o X o o X o o o o o X o o o * * = ;                                                 ",
"                                          = = = * * * * * * = = = ; : :                                                         ",
"                                                                                                                                ",
"                                                                                                                                "
};
