/* XPM */
static char *bf952bafab434c35a46e90d57e57e13brHr2leZhjywwmJjk[] = {
/* columns rows colors chars-per-pixel */
"64 64 117 2 ",
"   c None",
".  c #3D3F00",
"X  c #413F00",
"o  c #433E00",
"O  c #433F00",
"+  c #443E00",
"@  c #453E00",
"#  c #443F00",
"$  c #463E00",
"%  c #473A06",
"&  c #4F2C15",
"*  c #4F2D15",
"=  c #4F2E14",
"-  c #4F2C16",
";  c #4F2D16",
":  c #502D15",
">  c #502C16",
",  c #512C16",
"<  c #502D16",
"1  c #512D16",
"2  c #493313",
"3  c #4D3110",
"4  c #4C3210",
"5  c #4D3210",
"6  c #1F4B00",
"7  c #1E4D00",
"8  c #1D4F00",
"9  c #1E4E00",
"0  c #1B5100",
"q  c #1B5300",
"w  c #1D5000",
"e  c #1C5200",
"r  c #185600",
"t  c #195600",
"y  c #1C5700",
"u  c #1F5600",
"i  c #165A00",
"p  c #165B00",
"a  c #155C00",
"s  c #155D00",
"d  c #145E00",
"f  c #145F00",
"g  c #185B00",
"h  c #1F5A00",
"j  c #1F5B00",
"k  c #195D00",
"l  c #1A5E00",
"z  c #1D5C00",
"x  c #244300",
"c  c #254300",
"v  c #264300",
"b  c #274300",
"n  c #234500",
"m  c #234600",
"M  c #224700",
"N  c #234700",
"B  c #244400",
"V  c #254400",
"C  c #244500",
"Z  c #264400",
"A  c #284300",
"S  c #2C4200",
"D  c #2C4300",
"F  c #2E4200",
"G  c #204900",
"H  c #214900",
"J  c #224800",
"K  c #204B00",
"L  c #204E00",
"P  c #234E00",
"I  c #264D00",
"U  c #274E00",
"Y  c #2F4E00",
"T  c #334200",
"R  c #364100",
"E  c #3D4000",
"W  c #3F4200",
"Q  c #3E4300",
"!  c #3F4300",
"~  c #384500",
"^  c #3A4500",
"/  c #3B4500",
"(  c #394700",
")  c #3D4400",
"_  c #324B00",
"`  c #364900",
"'  c #275100",
"]  c #265300",
"[  c #235600",
"{  c #265400",
"}  c #295300",
"|  c #2B5200",
" . c #2A5300",
".. c #2C5100",
"X. c #0F6500",
"o. c #0E6600",
"O. c #0F6600",
"+. c #0E6700",
"@. c #0F6700",
"#. c #0D6900",
"$. c #0E6800",
"%. c #0F6800",
"&. c #126100",
"*. c #116200",
"=. c #116300",
"-. c #166100",
";. c #106400",
":. c #116400",
">. c #106500",
",. c #116500",
"<. c #126400",
"1. c #126500",
"2. c #106600",
"3. c #186000",
"4. c #414100",
"5. c #424000",
"6. c #404300",
/* pixels */
"                                                                                                                                ",
"                                                                                                                                ",
"                                                                                                                                ",
"                                                                                          :.                                    ",
"                                                                                        :.%.                                    ",
"                                                                                      %.#.                                      ",
"                                                                                      :.                                        ",
"                                                                                    #.%.                                        ",
"                                                                    V             :.#.                                          ",
"                                                                    V           #.%.                                            ",
"                                                                    V         :.:.%.                                            ",
"                                                  5.              V V         %.#.                                              ",
"                                              < < 4 <             V V       :.#.                                                ",
"                                            < > < < < <           V V     :.#.:.                                                ",
"                                            < > < < < <           V x   #.#.%.                                                  ",
"                                            < < < < < < <         V V d #.:.@.                                        #.        ",
"                                          < < < < < < < <         x 8 @.@.@.    < < < < <                         :.%.          ",
"                                          < < < < < < < <         G &.@.@.      < & & & <                     %.#.              ",
"          V                               < < < < < < & <       M p @.@.@.    < < < < < <                   #.                  ",
"            V V                           < & < < < < & <       p :.@.@.      < & < < < <                 %.                    ",
"              V V                         < & < < < < < <       @.@.@.        < & < & <                                         ",
"                V V V                     < & < < < < < <     @.@.@.&.      < < < < & <                                         ",
"                  V V V                   < & < < < < < <     @.@.@.w       < & < < & <             %.                          ",
"                    V V V                 < & < < < < <     @.@.@.p V       < & < & <               :.                          ",
"                      V V V               < < < < < & <   #.@.@.X.6 x       < < < < <             #.                            ",
"                        V V V               < & < < > <   @.@.@.t x A       < < < <             %.:.                            ",
"                          V x V             < < > < > 2 @.@.@.&.M x x       < < < <             :.#.                            ",
"                            V x V               4 4     @.@.@.q x x x         %               @.:.%.                            ",
"                            V V V V             @ @   @.@.@.:.M x V V       @ 5.            :.#.#.                              ",
"                              V x V             @ @   @.@.@.d x x V         @               #.@.%.                              ",
"                              V V x V           o ) @.@.@.@.  x x A         5.            :.#.:.:.                              ",
"                                V x V           @ _ @.@.@.    V V V       5.@             #.:.#.                                ",
"                                V x x V         ) j #.:.%.    V x V       5.            #.:.@.#.                                ",
"        V                         V x V         } :.@.%.    V A x V       @           :.%.#.:.#.                                ",
"          V V                     V x V V       :.:.:.#.    V x x V     @ 5.          #.:.@.#.                                  ",
"            V V                   V x x V       @.#.#.:.    V x V V     5.@         %.:.#.:.:.                                  ",
"              V V                   V x V       @.@.@.      V x V       @           :.#.%.#.%.                                  ",
"              V V V                 V x V V   @.@.@.@.      V x V       5.        #.#.:.:.:.                                    ",
"                V V                 V x x V   @.@.@.        V x V     $ @         :.:.#.@.#.                                    ",
"                  V V               V V x x   @.@.@.        V x V     5.        #.:.#.@.:.                                      ",
"                  V V V               V x x w %.@.&.      V V x V     5.        %.:.#.:.#.                                      ",
"                    V x V             V x x w :.#.j       V V x V   5.$       #.:.#.:.#.                                        ",
"                      V V V           V x x L :.@...      V V x     $         #.#.:.#.%.                                        ",
"                      V x V           V x x M &.:.`       V M x     5.      :.:.:.#.:.                                          ",
"                        V x V           V A V d -.)       V x V   $ 5.      :.#.#.%.:.                                          ",
"                        V V V           V x x t l 5.      V x V   5.$     :.#.:.#.:.                                            ",
"                          V V V         x x x w j o       V V V   5.      %.%.#.:.%.                                            ",
"                          V V V A       x x x 8 [ o       V V     $     %.:.%.:.#.                                              ",
"                            V x V       V x x G } @     V V V   5.@     #.:.#.:.:.                                              ",
"                            V V V V     V V x G ' @     V x M   @     #.:.#.:.%.                                                ",
"                              V x V       V x V U 5.    V x V   5.    :.#.:.:.#.                                                ",
"                              V V V V     V A V I 5.    V V V @ @   #.:.#.@.%.                                                  ",
"                                V x V     V x V I Q     V V A @     :.%.:.#.                                                    ",
"                                V x V V   V x x L ^     x M R @   #.:.%.#.:.                                                    ",
"                                  V x V   V x x 8 _     x V Q @   @.#.:.%.                                                      ",
"                                  V x V V V x A 8 '   V x A o o #.#.:.#.#.                                                      ",
"                                    V x V V x x 8 l   V M F @   @.@.@.@.                                                        ",
"                                    V x V V V x M &.  x x R @ l @.@.@.                                                          ",
"                                    V V V V V x M &.&.x x . 5.#.@.@.@.                                                          ",
"                                      V x V V x M &.@.6 F @ } @.@.@.                                                            ",
"                                      V x V V x M d @.p T 5.3.#.@.                                                              ",
"                                        V x V x x g #.&.~ ^ :.#.@.                                                              ",
"                                        V V V V V u @.-.^ } @.@.                                                                ",
"                                            V V x u @.:.                                                                        "
};
