/* XPM */
static char *_a4ecd3df5a343bfed709501b1ac6f4dRFeCKKyO5buH8pnO[] = {
/* columns rows colors chars-per-pixel */
"16 16 229 2 ",
"   c #C09E78",
".  c #AD9981",
"X  c #BD918E",
"o  c #AEBCA2",
"O  c #D99892",
"+  c #CAA88D",
"@  c #CAB08B",
"#  c #D2B387",
"$  c #DEBA88",
"%  c #DAAD9A",
"&  c #D8A89E",
"*  c #C8B79B",
"=  c #EFA49F",
"-  c #F6B59F",
";  c #F2BD9E",
":  c #D9ADA0",
">  c #D9AEA5",
",  c #DAADAA",
"<  c #C2B6A8",
"1  c #D1B1A2",
"2  c #D8B1AC",
"3  c #DABBA9",
"4  c #E3A6A1",
"5  c #EDA6A2",
"6  c #EEA8AA",
"7  c #F7B4A3",
"8  c #F6BAA0",
"9  c #F7B0AC",
"0  c #FDB9AC",
"q  c #B2C7B4",
"w  c #BFDEB5",
"e  c #EEC79E",
"r  c #F2C697",
"t  c #F3C39B",
"y  c #F6CE9B",
"u  c #F0CB9E",
"i  c #F8CF99",
"p  c #F0D19A",
"a  c #F5D29C",
"s  c #C4CCB7",
"d  c #DAC4B6",
"f  c #DAC8B2",
"g  c #DACFB1",
"h  c #C2DBB1",
"j  c #CEDEBA",
"k  c #D7D3B8",
"l  c #E3CCA2",
"z  c #F1C4A7",
"x  c #F2CDA0",
"c  c #F0CDA7",
"v  c #FFD6A2",
"b  c #F5D4AB",
"n  c #FAD9BA",
"m  c #F8DBBD",
"M  c #CAE3BB",
"N  c #CEE5BB",
"B  c #C9E9BA",
"V  c #D2D8CC",
"C  c #EDD7C0",
"Z  c #E4DCC7",
"A  c #EBDBCC",
"S  c #F7DFC7",
"D  c #F4DACB",
"F  c #F0D4D0",
"G  c #C9E2C2",
"H  c #D4E9CA",
"J  c #DEE0D5",
"K  c #D1E9D1",
"L  c #DEE9DB",
"P  c #D9ECD9",
"I  c #F1E2C1",
"U  c #ECE3DA",
"Y  c #E9EDDC",
"T  c #F7E1D3",
"R  c #F2EDDA",
"E  c #FFECDA",
"W  c #E2EDE7",
"Q  c #EEEDE8",
"!  c #F7E9E0",
"~  c #F2EEEF",
"^  c #F8EFE8",
"/  c #FBEBEC",
"(  c #E7F3EF",
")  c #EBF5ED",
"_  c #EDF7EF",
"`  c #F4F0E7",
"'  c #F9F4E1",
"]  c #F3F2EE",
"[  c #F5F4EF",
"{  c #FCF3EE",
"}  c #F0F8E9",
"|  c #F2FAEB",
" . c #F2FAEF",
".. c #F9FBED",
"X. c #FBF8EF",
"o. c #FFF9EE",
"O. c #F4EFF5",
"+. c #EDF1F2",
"@. c #EDF3F3",
"#. c #EFF5F3",
"$. c #EFF2F7",
"%. c #EFF5F5",
"&. c #EDF5F7",
"*. c #EFF7F9",
"=. c #EAF8F9",
"-. c #EDF9F9",
";. c #EDFDFD",
":. c #F3F2F0",
">. c gray95",
",. c #F4F3F1",
"<. c #F4F2F3",
"1. c #F7F3F2",
"2. c #F2F4F1",
"3. c #F0F4F3",
"4. c #F3F5F2",
"5. c #F2F7F3",
"6. c #F4F6F1",
"7. c #F4F4F2",
"8. c #F5F5F3",
"9. c #F4F6F3",
"0. c #F7F6F2",
"q. c #F6F7F2",
"w. c #F5F3F4",
"e. c #F7F3F4",
"r. c #F5F3F6",
"t. c #F7F2F6",
"y. c #F1F5F6",
"u. c #F6F6F4",
"i. c #F7F7F5",
"p. c #F4F5F7",
"a. c #F7F5F6",
"s. c gray97",
"d. c #F8F4F1",
"f. c #FAF5F1",
"g. c #F9F6F1",
"h. c #F8F7F3",
"j. c #FCF4F1",
"k. c #FCF4F2",
"l. c #FFF7F2",
"z. c #F8F2F6",
"x. c #F9F3F7",
"c. c #F8F4F5",
"v. c #FAF6F5",
"b. c #F9F5F6",
"n. c #FFF5F4",
"m. c #FCF6F6",
"M. c #F0FAF2",
"N. c #F0FBF3",
"B. c #F3FAF3",
"V. c #F5F8F1",
"C. c #F7F8F0",
"Z. c #F7F8F3",
"A. c #F2F8F6",
"S. c #F6F8F5",
"D. c #F7F9F6",
"F. c #F6F8F7",
"G. c #F5FAF6",
"H. c #F5FBF7",
"J. c #F6FDF6",
"K. c #F8F9F4",
"L. c #FAF9F4",
"P. c #F8FBF4",
"I. c #F9F9F7",
"U. c #FAF9F7",
"Y. c #FAFBF6",
"T. c #FDF9F6",
"R. c #FEF9F6",
"E. c #FBFCF6",
"W. c #F5F2F9",
"Q. c #F4F3F9",
"!. c #F6F3FA",
"~. c #F1F5F8",
"^. c #F1F4F9",
"/. c #F3F4F9",
"(. c #F2F6F9",
"). c #F2F5FA",
"_. c #F5F4F9",
"`. c #F5F6F8",
"'. c #F6F7F9",
"]. c #F7F7F9",
"[. c #F5F6FA",
"{. c #F5F6FB",
"}. c #F6F7FB",
"|. c #F1F3FF",
" X c #F6F0FC",
".X c #F5F5FD",
"XX c #F6F7FC",
"oX c #F7F7FF",
"OX c #FBF1F9",
"+X c #FCF2FA",
"@X c #FAF4F8",
"#X c #FAF5F9",
"$X c #F9F7F8",
"%X c #F8F6F9",
"&X c #F9F7FA",
"*X c #FDF7F9",
"=X c #FCF7FB",
"-X c #FAF2FF",
";X c #F9F7FC",
":X c #F9F6FD",
">X c #FAF7FE",
",X c #FCF6FF",
"<X c #F4F8F9",
"1X c #F7F9F8",
"2X c #F4F8FB",
"3X c #F7F8FA",
"4X c #F4FAFA",
"5X c #F3FCFB",
"6X c #F6FCFA",
"7X c #F5F9FC",
"8X c #F5FAFD",
"9X c #F6F9FE",
"0X c #F8F8F8",
"qX c #FCF8F9",
"wX c #FFFBF8",
"eX c #FDF9FA",
"rX c #FAFCF9",
"tX c #FAFCFB",
"yX c #FAFBFD",
"uX c #FAF9FE",
"iX c #FAF8FF",
"pX c #F9FAFE",
"aX c #F8FBFF",
"sX c #FDF8FC",
"dX c #FFFBFF",
"fX c #F8FEFC",
"gX c #F8FCFF",
"hX c #FCFCFE",
"jX c #FEFCFF",
/* pixels */
"D.<.O.hX&.M.L.d. ...d.$X].).D.L.",
").].v.U.3.^.uX-XuX:X:X0X0.0Xs.].",
"v.C.2.y.8Xl.E n b S { gX@.s.:.eX",
"&.D.U.d.].W H w h G P A.0X$X3X-.",
").D.L.0.0.L H B M N j Y sX XoX) ",
"l.<.&.A.Q m c e t u l Z uX).sXo.",
"c.3X8XT.A 3 > , 2 : % 1 ` 3XoX~ ",
"[ ).|.*XD z 8 7 ; - 0 & ! J.A.0X",
"0XW.s...I x v p a i i + R gX3X@X",
"0.^.oXhXF 4 = 5 6 9 O X / gX+.Y.",
"| 2.).tXU d f k g * . < D.(.s.v.",
"].,XoXD.' m e $ #   + T wX).8X:.",
") U.v.s.3XQ V q o s J s.8X(.s.l.",
"m.+XW.=.;.3X2._ ( (.8X).$.3X:.m.",
"M.[ j.0.0.r.r.3XY.[ 3.@X0.D.0.s.",
"8X0.d.0.y.$Xv.r.s.0X].$XC.s.2.]."
};
