/* XPM */
static char *_3f299858d38465ea198a134667a4a22qLaWH6kaFNbcKiT1[] = {
/* columns rows colors chars-per-pixel */
"64 64 149 2 ",
"   c None",
".  c #1E1A1C",
"X  c #211D1E",
"o  c #27221F",
"O  c #2A251E",
"+  c #2E291E",
"@  c #352F1D",
"#  c #3B341D",
"$  c #1F1C20",
"%  c #231F20",
"&  c #252122",
"*  c #292526",
"=  c #2B2728",
"-  c #2D2A2B",
";  c #312D2E",
":  c #332F30",
">  c #353132",
",  c #393536",
"<  c #3B3738",
"1  c #3D3A3A",
"2  c #423A1C",
"3  c #413D3E",
"4  c #4A411A",
"5  c #514719",
"6  c #534A19",
"7  c #584E18",
"8  c #5D5217",
"9  c #5B5018",
"0  c #635717",
"q  c #665A16",
"w  c #6B5D16",
"e  c #726415",
"r  c #7D6D14",
"t  c #474026",
"y  c #4C4320",
"u  c #423F40",
"i  c #454243",
"p  c #484546",
"a  c #4A4748",
"s  c #4D4A4B",
"d  c #514D4E",
"f  c #555253",
"g  c #595656",
"h  c #5A5758",
"j  c #5E5B5C",
"k  c #615F5F",
"l  c #625F60",
"z  c #656263",
"x  c #686667",
"c  c #6A6768",
"v  c #6C6A6A",
"b  c #706E6E",
"n  c #716F70",
"m  c #747272",
"M  c #787677",
"N  c #7D7B7C",
"B  c #8E7D11",
"V  c #807E7F",
"C  c #99860F",
"Z  c #9D890F",
"A  c #928011",
"S  c #9C8810",
"D  c #A18C0F",
"F  c #AE980C",
"G  c #B79F0B",
"H  c #BCA40B",
"J  c #C3AA0A",
"K  c #CCB209",
"L  c #D7BB06",
"P  c #DABD07",
"I  c #E3C505",
"U  c #E7C805",
"Y  c #E9CA06",
"T  c #E1C40C",
"R  c #F4D303",
"E  c #F9D601",
"W  c #FFDB01",
"Q  c #817F80",
"!  c #848283",
"~  c #898787",
"^  c #898788",
"/  c #8D8C8C",
"(  c #908F8F",
")  c #959393",
"_  c #989696",
"`  c #9B9A9A",
"'  c #A09E9F",
"]  c #A4A3A3",
"[  c #A8A7A7",
"{  c #ACABAB",
"}  c #B0AEAF",
"|  c #B0AFB0",
" . c #B4B3B3",
".. c #B8B6B7",
"X. c #BCBBBB",
"o. c #C0BFBF",
"O. c #C0BFC0",
"+. c #C4C4C4",
"@. c #C8C7C7",
"#. c #CCCBCB",
"$. c #D0CFD0",
"%. c #D4D3D4",
"&. c #D5D4D4",
"*. c #D7D7D7",
"=. c #D3D3D3",
"-. c gray85",
";. c #D9D8D8",
":. c #DBDADA",
">. c #DDDCDC",
",. c #DDDCDD",
"<. c #DFDFDF",
"1. c #DEDDDE",
"2. c #DCDBDC",
"3. c #E1E1E1",
"4. c #E3E2E3",
"5. c #E2E1E2",
"6. c #E4E4E4",
"7. c #E5E4E5",
"8. c #E6E6E6",
"9. c #E4E4E4",
"0. c #E8E7E8",
"q. c #EAEAEA",
"w. c gray91",
"e. c #ECEBEB",
"r. c #ECECEC",
"t. c #EEEDED",
"y. c #EFEFEF",
"u. c #EBEAEA",
"i. c #F1F1F1",
"p. c #F3F3F3",
"a. c gray95",
"s. c #F4F4F4",
"d. c #F7F6F7",
"f. c #F6F5F6",
"g. c #F4F4F4",
"h. c #F8F7F7",
"j. c #F8F8F8",
"k. c #F9F9F9",
"l. c #F8F9F9",
"z. c gray98",
"x. c #FBFBFB",
"c. c #FCFBFC",
"v. c gray99",
"b. c #FCFCFD",
"n. c #FDFDFD",
"m. c #FEFEFE",
"M. c white",
"N. c #FEFFFF",
"B. c #FEFEFE",
/* pixels */
"                                                                                                                                ",
"                                < - = * & & X & & & * - >                                                                       ",
"                          i ; * o . . % * ; ; ; - & X . X % * :                                                                 ",
"                      i - % . % , j ~ { o.#.&.=.@. .` m a - . % & -                                                             ",
"                    > & . - j ] 2.f.B.B.B.B.B.B.B.B.B.B.e.+.V 1 o X & ;                                                         ",
"                p * X & k X.p.B.B.B.B.B.B.B.B.B.B.B.B.B.B.B.B.<./ < X X -                                                       ",
"              1 * . 3 ] p.B.B.B.B.B.B.B.B.B.B.B.B.B.B.B.B.B.B.B.B.=.c & X *                                                     ",
"            < & X g #.B.B.B.B.B.B.B.B.B.B.B.B.B.B.B.B.B.B.B.B.B.B.B.p.) - X &                                                   ",
"          < % X z 5.B.B.B.B.B.B.B.B.B.B.B.B.B.B.B.B.B.B.B.B.B.B.x.B.v.z.[ : X &                                                 ",
"        p & X k 6.B.B.B.B.B.B.B.B.B.B.B.B.B.B.B.B.B.B.B.B.B.z.z.z.z.B.v.B.[ - X *                                               ",
"        * X p -.B.B.B.B.B.B.B.B.B.B.B.B.B.B.B.B.B.B.B.B.B.B.z.B.z.l.z.z.B.z.( & X =                                             ",
"      ; X -  .B.B.B.B.B.B.B.B.B.B.B.B.B.B.B.B.B.B.B.B.B.B.z.z.B.B.B.z.B.B.B.t.z X &                                             ",
"      & X m z.B.B.B.B.B.B.B.B.B.B.B.B.B.B.B.B.B.B.B.z.B.z.z.z.z.z.z.B.B.B.B.B.@.> X *                                           ",
"    > X > #.B.B.B.B.B.B.B.B.B.B.B.B.B.B.B.B.B.B.B.B.z.z.B.z.B.z.z.B.B.B.B.B.B.z.M . &                                           ",
"    * . v z.B.B.B.B.B.B.B.B.B.B.B.B.B.B.B.B.B.B.B.B.B.z.z.B.z.B.B.B.B.B.B.B.B.B.+.- X *         = & % X % &                     ",
"  < X & | B.B.B.B.B.B.B.B.B.B.B.B.B.B.B.B.B.B.B.z.z.z.z.z.z.B.B.B.B.B.B.B.B.B.B.p.g X &     , & X % , 3 * X % -                 ",
"  , X , >.B.B.B.B.B.B.B.B.B.B.B.B.B.B.B.B.B.B.z.z.B.z.z.B.z.B.B.B.B.B.B.B.B.B.B.B.~ . &   : & X : / -.6...d X * ;               ",
"  ; X f p.B.B.B.B.B.B.B.B.B.B.B.B.B.B.B.B.z.x.z.B.z.z.x.B.B.B.B.B.B.B.B.B.B.B.B.B. .& & ; & X <  .B.B.B.B.-.f * *               ",
"  * . b z.B.=.) / X.l.B.B.B.B.B.B.B.B.B.B.z.B.z.z.B.B.B.B.B.B.B.B.B.B.B.B.B.B.B.B.@.- X X X 3 +.B.B.B.B.B.B.@.3 * -             ",
"  * . V B.X.g j & - ) v.B.B.B.B.B.B.B.B.z.B.c.z.z.z.B.B.z.<.<.p.B.B.B.B.B.B.B.B.B.-.> X X , o.B.B.B.B.B.c.x.B.` * & *           ",
"  * . ! f.j f / * . 1 5.B.B.B.B.B.B.x.x.z.z.z.B.v.B.B.6.V p , z &.B.B.B.B.B.B.B.B.-.> X ;  .B.B.B.B.B.B.B.z.B.9.s X &           ",
"  * . M t.s X & o X > -.B.B.B.B.B.z.B.z.z.B.z.z.B.B.z.N j _ & . j p.B.B.B.B.B.B.B.=.; . c z.B.B.B.B.B.B.B.B.x.B.` % X           ",
"  - . z f.~ X . X . c f.B.B.B.B.B.B.B.z.B.z.B.B.B.B.t.p : p & X > -.B.B.B.B.B.B.B.o.* X ! B.B.B.B.B.B.B.B.B.B.B.2.< X &         ",
"  , . p t.r.~ i i m <.B.z.#.` ! ~ { 5.B.z.z.B.B.B.B.f.j . X X . p q.B.B.B.B.B.B.B.' X X ] B.B.B.B.B.B.B.B.B.B.B.B.m X %         ",
"  i X ; @.B.v.q.q.z.B.&.m ; & * * - d  .z.B.B.B.B.B.B.X.3 X X , { B.B.B.B.B.B.B.z.n . - @.B.B.B.B.B.B.B.B.B.B.B.B. .* %         ",
"  g & X ) B.B.B.B.f.[ 1 . . + 4 2 = % - [ c.B.B.B.B.B.B.-.] ' =.B.B.B.B.B.B.B.B.5.3 . p q.B.B.B.B.B.B.B.B.B.B.B.B.5.1 X &       ",
"    : . s t.B.x.&.m = . * w J Y T A * X : [ c.B.B.B.B.B.B.B.B.B.B.B.B.B.B.B.B.B.] & X ! B.B.B.B.B.B.B.B.B.B.B.B.B.z.c . &       ",
"    p o * )  .m < . % # D R W W W W Z + . : ` y.B.B.B.B.B.B.B.B.B.B.B.B.B.B.B.t.f . ; @.B.B.B.B.B.B.B.B.B.B.B.B.B.B.) X %       ",
"      - X * & . $ o q K W W W W W W E S + X * l X.e.B.B.B.B.B.B.B.B.B.B.B.B.B.` * . v f.B.B.B.B.B.B.B.B.B.B.B.B.B.B.+.= X &     ",
"    l * % % o # e H R W W W W W W W W E F 2 $ $ * s ! @.B.B.B.B.B.B.B.B.B.B.=.< & < #.B.B.B.B.B.B.B.B.B.B.B.B.B.B.B.5.1 X &     ",
"    - % @ r H I E W W W W W W W W W W W W P r # X . . > ] B.B.B.B.B.B.B.B.6.h X * ) z.B.z.B.B.B.B.B.B.B.B.B.B.B.B.t.<.s . &     ",
"    & % B E W W W W W W W W W W W W W W W W W L S 0 + . < -.B.B.B.B.B.B.q.c X X c w.B.z.z.B.B.B.B.B.B.B.B.B.B.#.N s 3 - X &     ",
"    * % e R W W W W W W W W W W W W W W W W W W W R r $ & X.B.B.B.B.B.5.z % & g <.c.z.z.B.B.B.B.B.B.B.B.B.p.) > . . . X X %     ",
"    > X * r I W W W W W W W W W W W W W W W W W W I 6 . ; =.B.B.B.B.6.j & & f =.z.z.B.B.B.B.B.B.B.B.B.B.p.V * . = c N > X o     ",
"      > & o 4 Z P W W W W W W W W W W W W W W R J 7 o . m f.B.B.B.B.2.i - z -.B.B.B.B.B.B.B.B.B.B.B.B.B.` & X 3  .f.B.` & %     ",
"      M > * & X # w C H L U R R E E R R U K S 0 = $ X h <.B.B.B.B.B.z.+.{ 0.B.z.B.B.B.B.B.B.B.B.B.B.B.B.] - p +.B.B.B.<.< X &   ",
"      i - * < * . . % o @ 2 6 7 0 8 8 5 2 + % . o : V 6.B.B.B.B.B.z.z.B.B.B.z.B.B.B.B.B.B.B.B.B.B.B.B.B.z.#.5.B.B.B.B.z.z X &   ",
"      - & d =...M s : * . . . . . . . . . % - a V #.x.B.B.B.B.z.B.z.z.B.B.z.B.B.B.B.B.B.B.B.B.B.B.B.B.B.B.B.B.B.B.B.B.B./ X %   ",
"    , & - X.B.B.B.t.=. .` ~ m c z z z m ^ ] @.q.B.B.B.B.B.v.z.B.z.B.z.z.z.B.B.B.B.B.B.B.B.B.B.B.B.B.B.B.B.B.B.B.B.B.B.B.} & %   ",
"    = X b z.B.B.B.B.B.B.B.B.B.B.z.z.z.B.B.B.B.B.B.B.B.B.B.B.z.z.B.z.z.B.B.B.B.B.B.B.B.B.B.B.B.B.B.B.B.B.B.B.B.B.B.B.B.B.+.; * - ",
"  ; X - +.B.B.B.B.B.B.B.B.B.B.B.B.B.B.B.B.B.B.B.B.B.B.B.z.z.z.z.z.z.x.B.B.B.B.B.B.B.B.B.B.B.B.B.B.B.B.B.B.B.B.B.B.B.B.B.=.< * - ",
"  * X h p.B.B.B.B.B.B.B.B.B.B.B.B.B.B.B.B.B.B.B.B.B.z.z.z.c.z.B.z.B.B.B.B.B.B.B.B.B.B.B.B.B.B.B.B.B.B.B.B.B.B.B.B.B.z.B.&.< * = ",
"  & . ( B.B.B.B.B.B.B.B.B.B.B.B.B.B.B.B.B.B.B.B.z.B.B.z.v.z.z.z.B.B.B.B.B.B.B.B.B.B.B.B.B.B.B.B.B.B.B.B.B.B.B.B.z.B.z.x.&.< & & ",
", & &  .B.B.B.B.B.B.B.B.B.B.B.B.B.B.B.B.B.B.B.B.B.z.B.z.z.B.B.z.B.B.B.B.B.B.B.B.B.B.B.B.B.B.B.B.B.B.B.B.B.B.B.B.z.x.c.B.#.- X & ",
"> X - @.B.B.B.B.B.B.B.B.B.B.B.B.B.B.B.B.B.B.B.B.z.z.z.z.B.z.B.B.B.B.B.B.B.B.B.B.B.B.B.B.B.B.B.B.B.B.B.B.B.B.z.z.B.z.z.B. .& &   ",
"> % ; =.B.B.B.B.B.B.B.B.B.B.B.B.B.B.B.B.B.B.z.B.z.z.B.z.z.B.B.B.B.B.B.B.B.B.B.B.B.B.B.B.B.B.B.B.B.B.B.B.B.B.z.B.z.c.z.B./ . %   ",
"> X - #.B.B.B.B.B.B.B.B.B.B.B.B.B.B.B.B.B.B.z.B.z.B.z.z.B.B.B.B.B.B.B.B.B.B.B.B.B.B.B.B.B.B.B.B.B.B.B.B.v.z.z.v.B.z.B.p.j X &   ",
"> % *  .B.B.B.B.B.B.B.B.B.B.B.B.B.B.B.B.B.B.B.z.B.z.B.B.B.B.B.B.B.B.B.B.B.B.B.B.B.B.B.B.B.B.B.B.B.B.B.z.z.B.z.c.z.B.B.#.; X &   ",
"  & . ! B.B.B.B.B.B.B.B.B.B.B.B.B.B.B.B.B.B.B.B.B.B.B.B.B.B.B.B.B.B.B.B.B.B.B.B.B.B.B.B.B.B.B.B.B.B.z.z.z.z.B.B.z.B.B.! X X     ",
"  * % s t.B.B.B.B.B.B.B.B.B.B.B.B.B.B.B.B.B.B.B.B.B.B.B.B.B.B.B.B.B.B.B.B.B.B.B.B.B.B.B.B.B.B.B.B.c.z.B.j.B.z.x.B.B.&.< X &     ",
"  = & & { B.B.B.B.B.B.B.B.B.B.B.B.B.B.B.B.B.B.B.B.B.B.B.B.B.B.B.B.B.B.B.B.B.B.B.B.B.B.B.B.B.B.B.z.B.z.z.B.c.B.B.B.p.n X %       ",
"    & X d 6.B.B.B.B.B.B.B.B.B.B.B.B.B.B.B.B.B.B.B.B.B.B.B.B.B.B.B.B.B.B.B.B.B.B.B.B.B.B.B.B.z.B.z.z.z.B.z.z.B.B.B.] * X &       ",
"    - % X ! z.B.B.B.B.B.B.B.B.B.B.B.B.B.B.B.B.B.B.B.B.B.B.B.B.B.B.B.B.B.B.B.B.B.B.B.B.B.B.z.v.z.B.z.x.c.B.B.B.B.X.> X &         ",
"      * % * ` B.B.B.B.B.B.B.B.B.B.B.B.B.B.B.B.B.B.B.B.B.B.B.B.B.B.B.B.B.B.B.B.B.B.B.B.B.B.B.z.B.z.B.z.B.B.B.B.X.< . o           ",
"        * X - ` z.B.B.B.B.B.B.B.B.B.B.B.B.B.B.B.B.B.B.B.B.B.B.B.B.B.B.B.B.B.B.B.B.B.B.B.B.B.B.x.z.B.x.B.B.z.{ , X %             ",
"          & X * ! q.B.z.z.B.B.B.B.B.B.B.B.B.B.B.B.B.B.B.B.B.B.B.B.B.B.B.B.B.B.B.B.B.B.B.B.B.B.x.B.B.B.B.6.! - X %               ",
"            & X X f X.f.B.v.v.B.B.B.B.B.B.B.B.B.B.B.B.B.B.B.B.B.B.B.B.B.B.B.B.B.B.B.B.B.B.B.B.B.B.B.f. .f X X &                 ",
"              * % X > m @.f.B.B.B.B.B.B.B.B.B.B.B.B.B.B.B.B.B.B.B.B.B.B.B.B.B.B.B.B.B.B.B.B.B.B.p.+.c - X % &                   ",
"                  & = & > c { 6.B.B.B.B.B.B.B.B.B.B.B.B.B.B.B.B.B.B.B.B.B.B.B.B.B.B.B.B.B.B.5.{ k - . X %                       ",
"                    ; - & X & i m { &.i.B.B.B.B.B.B.B.B.B.B.B.B.B.B.B.B.B.B.B.B.B.B.f.-.} m i & X X & *                         ",
"                        * * o . . % > d m )  .#.5.t.f.z.c.v.B.B.B.B.c.h.p.q.-.+.[ N g , & . X & &                               ",
"                              * * & X X . % * - < a g z b M N N N M b z f i > = X . X X X & *                                   ",
"                                      * * & & o X X . . X . . X X X X X % X % % % & &                                           ",
"                                                = * & & & & = * & % - = * &                                                     "
};
