/* XPM */
static char *b8020a547b78476bada7258b1e12d160bceslJiHn2I80VPw[] = {
/* columns rows colors chars-per-pixel */
"64 64 167 2 ",
"   c #2769BD",
".  c #2B6CBE",
"X  c #3D7BBE",
"o  c #427CBB",
"O  c #2C6EC1",
"+  c #2F72C4",
"@  c #2F76C8",
"#  c #3175C5",
"$  c #357AC7",
"%  c #3276C9",
"&  c #367CCB",
"*  c #397ECC",
"=  c #377ED0",
"-  c #3A7FD1",
";  c #417CC8",
":  c #3780CE",
">  c #3B81CE",
",  c #3C84D1",
"<  c #3F89D4",
"1  c #4484C6",
"2  c #4986C7",
"3  c #4E89C5",
"4  c #4186CE",
"5  c #4589CD",
"6  c #4D8CCD",
"7  c #5792CE",
"8  c #5996CF",
"9  c #4186D3",
"0  c #438BD5",
"q  c #498ED5",
"w  c #458DD9",
"e  c #498ED9",
"r  c #508FD2",
"t  c #4690D6",
"y  c #4A91D6",
"u  c #4E98D7",
"i  c #4691DA",
"p  c #4C94DA",
"a  c #4F98DC",
"s  c #5294D4",
"d  c #5A95D5",
"f  c #539AD7",
"g  c #5C9BD6",
"h  c #5196DC",
"j  c #549ADE",
"k  c #599EDE",
"l  c #669ED1",
"z  c #56A0DF",
"x  c #5BA2DE",
"c  c #6CA4D6",
"v  c #63A2DC",
"b  c #6BA2D8",
"n  c #63A8DF",
"m  c #7DA8D3",
"M  c #72A7D9",
"N  c #79AFDE",
"B  c #4C95E1",
"V  c #559CE1",
"C  c #599EE1",
"Z  c #559DE9",
"A  c #56A0E1",
"S  c #5CA2E2",
"D  c #5FAAE4",
"F  c #61A6E4",
"G  c #69A7E4",
"H  c #63A9E1",
"J  c #62A8E3",
"K  c #63A8E3",
"L  c #64A9E0",
"P  c #65AAE1",
"I  c #64A9E2",
"U  c #64ABE3",
"Y  c #65AAE3",
"T  c #66ABE2",
"R  c #67ADE3",
"E  c #63A9E4",
"W  c #62AAE5",
"Q  c #63ABE5",
"!  c #63ABE6",
"~  c #61A9E5",
"^  c #64AAE5",
"/  c #65AAE5",
"(  c #66ABE4",
")  c #64AAE6",
"_  c #65ABE7",
"`  c #66ABE6",
"'  c #65ACE4",
"]  c #67ACE5",
"[  c #66ADE5",
"{  c #65ADE7",
"}  c #67ACE7",
"|  c #67AEE6",
" . c #64AAE5",
".. c #69AFE3",
"X. c #6BAEE3",
"o. c #69AEE5",
"O. c #68AFE5",
"+. c #68ADE6",
"@. c #69AEE7",
"#. c #68AFE7",
"$. c #6AAFE6",
"%. c #6CAFE4",
"&. c #69ACE6",
"*. c #62A7E8",
"=. c #61ABE8",
"-. c #63AAE8",
";. c #64ABE9",
":. c #66ACE8",
">. c #67ADE8",
",. c #67ADE9",
"<. c #66AEE9",
"1. c #66ABE9",
"2. c #68ADE8",
"3. c #68AEE9",
"4. c #69AEE9",
"5. c #68AEEA",
"6. c #69AEE9",
"7. c #78ACE6",
"8. c #6AB0E4",
"9. c #6BB0E7",
"0. c #6DB3E7",
"q. c #6CB2E6",
"w. c #6DB0E4",
"e. c #6AB1E9",
"r. c #69B2E9",
"t. c #68B0EA",
"y. c #69B1EB",
"u. c #68B0EB",
"i. c #6BB0EB",
"p. c #69B0E8",
"a. c #6CB1E8",
"s. c #6CB3E9",
"d. c #6EB3EA",
"f. c #6FB5E9",
"g. c #6FB4EB",
"h. c #6EB5ED",
"j. c #6DB6ED",
"k. c #6CB1EA",
"l. c #6FB8EF",
"z. c #70B3E7",
"x. c #71B4E8",
"c. c #72B5E9",
"v. c #72B5EA",
"b. c #71B7EA",
"n. c #73B6EB",
"m. c #71B6ED",
"M. c #73B2EC",
"N. c #72B8EB",
"B. c #74BAED",
"V. c #74BAEE",
"C. c #77B3F1",
"Z. c #71B9F0",
"A. c #85B9EA",
"S. c #92C5F4",
"D. c #9BD3FF",
"F. c #A9CFF3",
"G. c #ABD5F7",
"H. c #B2D5F5",
"J. c #B1D8F7",
"K. c #B1D7FB",
"L. c #B3DCFD",
"P. c #B4E1FF",
"I. c #BAE2FF",
"U. c #C0E5FF",
"Y. c #C8EDFF",
"T. c #D3FAFF",
"R. c #E6FFFF",
/* pixels */
"# . # % $ : , x s.b.b.n.N.B.b.N.N.b.0.w.x.x.v.m.B.N.h.Z.l.h.l.y.' ' n n x x z f z u a a i i B < < i i < w B i i < < t y p u a a ",
". . O O + : u x 8.o.] 8.q.s.q.b.8.8.w.X.X.8.$.s.i.s.s.u.u.;.>.' D D x n n x f s u a a a i a < < < < i < < < < < < w < t t t i a ",
".   O   & t k ` >.U H o.4.o.s.s.8.] n G n n U o.p.u.p.>.u.D ' H S x x x x f f u a u p p a i < i w < i < < < w , < < < < < t t t ",
".     # p C x F Q Q ^ o.4.o.o.o.] 8.n U U n U p.>.Q Q -.;.D D S S x x x x u f u u a a i < i i i w i < < w < w w w w w < < < < t ",
"O . . * C *.x x F 5.&.&.6.^ o.o.U o.` G ^ F 6.^ ^ 5.^ Q -.-.D A S S x j z x u f z u u y t w w B i < w < w < w < < < w < < t i p ",
"O # * 0 j S S F F F K K ^ ^ ^ o.` ` o.` ^ 6.u.6.>.>.1.-.F 1.S z D S k C x 8 j f a a u a p i w i B i < i B w w w i i w w y i p a ",
"# # 0 V C x F F F K F F K ^ ^ 6.^ o.U U 6.^ 1.^ F -.F 1.-.D C z S S k k x j j j j k a V p p w B i i i i w w w w i i e w w u j a ",
"# $ h C S F K x F K F K &.K F F F ^ ` G F F F F S -.S 1.S *.S Z S x k k k z j u j Z a p p B i i w i i i B w i B B i w w p Z p u ",
"# - V S k F F k F F F F 1.F 1.Q x ^ &.F x F F S F S S F A A C C Z C j C C u j k a a y y p e p p 0 i i p a i i B B B p w p B p e ",
"# ; h j C k k k x x F S S x S S F F F F S k S S S k j C C k Z k h x k j p u p j V p y y u p j p i t y i y a y y p p i w p p p 0 ",
"% * 0 h h k C S v S H x S x S n K ^ F F F F F S S F A F F k S k A A k j A x j k A a A V j h h V a p a t y i y i i p w 0 e t e e ",
"* - 4 p k k F ^ S >.Q H o.6.6.s.o.s.6.6.6.6.&.>.1.1.1.1.F S *.F F D S S S k k x A A A A C j j V a y V V a V a i u p p e i 0 0 0 ",
"* > q C A F ^ ^ ^ o.6.o.o.p.s.6.p.s.&.6.] H p.] Q 1.Q F x F Q Q Q F S D F S S F z A S A S A S S A S A k a z a a a z p p t p w p ",
"- 9 p S Q ] ^ ^ 6.^ >.] ] ^ ^ U ] ] Q F S F ^ S 1.^ S S x x S S S S D S S S A F S S S A S x S A A S A j z z z z z a a a u p p p ",
"< 0 p S S S x x S Q ^ ] ^ U F F H S F S S H Q H H ' S S A F D C x z z S x z z C A z A S k k j C C a A C z a a a p a p p V a p p ",
"< w p V k x A k A x S ^ ^ U F G S x x D x S S x S S x S S S S S A A A z k j A z z j A A A C j u j u u a z p a a a a i a i a y p ",
"0 w t j x S x S S x H Q &.F F ^ F S F S S -.S -.Q S S F A k C S S j k A A j V V A V V j V j p u a a a a A p p a i p t i p p p w ",
"0 w j A Q ^ Q o.Q ^ ] 1.1.F S H F S -.F S S C S S C j A C C V j A k h Z C j a a B a a j a j B a a a t a a y i y t t e p i p t e ",
"u S S 1.6.6.i.p.6.>.F 6.1.F S ^ x S S A A x k k C k V V k S C j V V j C j h V j A A a V V a a j V A i p p B p p i i < w i e e y ",
"S 5.>.u.&.^ 4.p.^ ^ ^ F S H x S x S j k A z j h j C C C C k V V A a p h C j A B V A a Z A A a a a a a a i p p i t t i 0 < w i i ",
"1.&.K K 6.^ ^ K F F S S C S S C k C A j k C C j j k C V j j j V a A C a V j V V V z A V j j j V j p V a a a u p p p w w e w e p ",
"F F K G 6.1.F F F C S C S C C S C j C j k A A j h V V V V V j Z a A Z C p V V A a A V A k h k S A z V a V a B j p p p i i w p q ",
"F F G F K K C F C S S C C k S S S k S S C k k C V S C C V C V V S A k k a a V V V A a V a p j Z u a A a a a p p p p w w p w w y ",
"H F S S K S F F C *.1.k C F S k S S x A k k h j C C C C j V C j j C V p V a y i a a a a V u h p a y B y a a y p j p p p i p p a ",
"U 1.F F ^ ^ F 1.k S 5.F k A A C C C j j j j a j a a V j j j j p p p q p p u p e p p p t p t t y p p u t p p p p p p p p p h V C ",
"6.o.&.^ F S S A C k S C a V j a j j k f p u a V a a p p y p p p p p h e h p p p p e e t p u p p j V e p y y i e p h h h j h h j ",
"F S F S S A z V j j C C u V C C p u p j p h h j p V p a j B j p p p p p p C y p h e p V a p j V V j p j j p u p p q u h h j h j ",
"x k C k z S A A V V C S V V S S Z j p j h j C k j C p V V h h j j j h j V V p V h h h h j j V V h h V j j j p p p y j B h h h C ",
"k k C C C C V A a V j C V V S A A C p V j j j k C j j j h V h V j p p j p j p p h h V p p V V h h V h V B j j h h V h h h h j C ",
"S A C S C A j Z a V C Z V j k C C k j k j k y h j h h j j k h j V V V p u j h h j j j h h V V h j h B V u h j p h h h V V h C C ",
"k S S S C j S S A A S Z A A C k j C C C j C j j h h j j C j j V V V V V h j j j j V j V C h h h j e h h h e B e h C B V V V C *.",
"S F S S S A A S A C S A S S A A k C j k C j C j j h h j j C j C V V j j j C j e e h h j C h r p p h V e q p h h V r r C V j C S ",
"F S F k F 1.F F F F *.C S S C C C C h j k j d j V h d C V h h V B C h h h h h r q h j h C h h h q r V p p r p h V h h h C d Z G ",
"F F F F C F G F *.*.C S C C V C *.C h V V j j j h j B V V h V V j h h h h h h h p j j j q h h q p p B e e e V V h h V V C C C G ",
"F k F F S F C k V C C C C Z C C V V j C V p q j j j h h h B h j j V V p h B h V C h q j q p q p h B B r e h h h h C h C C S G C.",
"*.l k k k C C j h h r V V V V V V V h h h h h h V h h h p h h j j h e p r p r h h y q e p q p j h h h h h V h h e C h h S G M.C.",
"S S k S k V h V C V C j C j h k h V j j j j h h r h h h p h p h h j h e V h r h r h e p e h j h C h h h h V h h r V h C C *.6.M.",
"1.*.S C V j e C C F C C F S C C C C C V C S C j C C C S C C V C C C k j j d j C C h h h C j h V C C C C h V V h V C C j h l K G ",
"K k V j e 0 9 h C C C C F C C F C C C C C S F C F C F S K K C C F *.k C k k j C C C C j C j j j V h V k V V h h h Z C j k 1.&.M.",
"C q 9 , * # * e j j C C k j k k C C C C d k k h k k k k C x k k C C C C d h h j j j j j j j p h r h p p r e e h h V q h C *.*.*.",
"p 0 9 * O # $ , V C V j k C C j C Z S C V j h j h j h g j k h j k j j d q s j h h h j j V j j V p j V j j A a a h h 0 e V s 9 h ",
"0 * * $ # % % & w j j C C k C C j C S C k j C k k k C C C C C C C C C C j j C j V C j C j V p j V V u t u a p t e e > - * * $ > ",
"9 * * # % @ @ % - 0 j j C l Z j C S g C C j k k C k k k C k C C k j C F C j j j V h j h p q p p e j 0 4 i w t , 9 - $ $ $ * > > ",
"e > $ # % % @ & $ , 0 u C C C S C F C C k C F K S F C S C k C C k k S C k h C C V C V V j V V V h p w < , , , < ; - & * > * > 0 ",
"; # $ + # & & & & , , t j k F K F F F S F F F F v F F F S F A k C C C C C C C F C C V V B p V p e e 0 > : : : > > > > > > > 9 9 ",
"A.A.; + % * & & & & : > 9 p j C S k k S C C k F S S S C k k C C C k C C C j k C V p j p p 0 q e , 4 , , > < < , < > : , , , 0 0 ",
"R.T.d O $ $ * - < * > < 9 q 0 q h h p h p j e j V j j h h p j p j p j j V h h q e 9 w e w 0 > > , * > 0 < < < , , > : > , < , 0 ",
"H.A.6 + $ * * , < < < , < , 0 0 0 q 9 0 0 0 q q q u q 0 q q 4 4 9 q q q e 9 9 9 ; , < w 9 , , 0 < 0 0 0 < , , , , , > > < < , , ",
"3 o ; & * , * , , 0 < < < i i w w w 0 t < < i i t q t t t 0 t e 0 e 0 q t , > 0 , < 0 < , 0 0 < 0 0 0 0 < , > > < : < , , < 9 9 ",
"6 ; & & * * > , , , , < < < i < < < 0 t t < < w p p t t t 0 t q t t 0 t t 0 w 0 0 0 < < t 0 0 < 0 < , < < , , , : < , 9 9 9 < 0 ",
"; * # % , - , , > < , : , , , < , < w w < w i i w e t t t t p w t t 0 0 0 t t 0 0 t 0 0 0 5 e , < 0 w 9 < < , , < < , 9 , - , < ",
"& % % * - - , , > , , : : > , , , < < < i < < < < e t e w e w w t t t t e t t w t 0 0 t 0 < < < , , < , , , : , , , - - * * , , ",
"* = - - - , - , : , , , > > , : , * < < < < < 9 w < < < < w w < w < 0 0 t t < t 0 0 0 0 < , , , > , > , , , = , > * , * - * , , ",
"9 ; - - = , = = , , = < , , , , , , : < < < w 9 < < < < < < < < < 0 , < < 5 , < , , , , < , , , , , > , , , , : * * - - * = : , ",
"- , - - , , = = = , : : : , , , , , - , - 9 9 9 < 0 0 w B B w w < w < , , > > > : : : > * * , * > : , , - & = = * * , , * - , < ",
"- - - , , = = = = , , , : : , > , - = - , , , - , < w w < w i w < < t < , , , : : > , > , , , , * * > * , = : , , : = , = - , < ",
"* 9 - * & * * * = = , = = , , - 9 * * * 9 > 9 9 - - - w < w w w w w w , 9 , , - > 9 , 9 , , , , < 9 , - , , - - > , , - , , 9 e ",
"* * * $ # * * * - , , , , , 9 0 9 4 9 9 9 4 9 , - = w - w < , < < < < , , , ; - - , > 9 , > > , , , - - , - - - , , , < w w w w ",
"4 4 e 9 * * 9 ; , , * , 9 < w 9 4 q 9 9 9 9 0 ; w < w w w w - , 0 0 < , , - * * ; , * 9 4 , * , 9 9 - , , , w < , < , 9 w w w e ",
"7 l l 3 o o o o X 1 9 e B 0 0 0 q q 4 q 9 0 q 0 w w w w w w < , 0 0 9 < 4 ; - 4 * , ; * , , * > < 9 w - , , - , < , 9 w w w w e ",
"G.L.L.G.F.K.L.L.L.A.q e 0 w e p e q 0 q q e 9 e w w w B B B w w w 9 9 , , > 4 5 9 9 ; * * * * * , , , - - , = , , - < B w 0 0 e ",
"I.K.L.I.Y.U.J.L.P.S.g V j p s 9 r 5 4 5 r r 9 9 w w w w i B B B B w e 0 9 9 9 q 4 4 > 9 9 4 * 4 w < > - - , , , ; 9 0 w w e q y ",
"c c c c 7.M l G b b l 1.G G s 2 e 5 2 q 6 q r r r e e B w e B B B w e w e 5 q q 5 q 4 e e e e e e w 9 9 - w w w w B p B h h s d ",
"g v g x v l S l K ^ G M.6.M.C.G l k d l d k C d V h B B Z Z Z Z B B p q 0 q q q e 5 4 4 q q q e w w 0 w w w B w i B p p j g v D."
};
